<svg xmlns="http://www.w3.org/2000/svg" xmlns:xlink="http://www.w3.org/1999/xlink" version="1.1" class="marks" width="704" height="183" viewBox="0 0 704 183"><rect width="704" height="183" fill="#fcfcfb"/><g fill="none" stroke-miterlimit="10" transform="translate(97,85)"><g class="mark-group role-frame root" role="graphics-object" aria-roledescription="group mark container"><g transform="translate(0,0)"><path class="background" aria-hidden="true" d="M0,0h600v60h-600Z"/><g><g class="mark-group role-axis" role="graphics-symbol" aria-roledescription="axis" aria-label="X-axis titled 'Share of reports in class' for a linear scale with values from 0% to 100%"><g transform="translate(0.5,60.5)"><path class="background" aria-hidden="true" d="M0,0h0v0h0Z" pointer-events="none"/><g><g class="mark-rule role-axis-tick" pointer-events="none"><line transform="translate(0,0)" x2="0" y2="5" stroke="#c3c2b7" stroke-width="1" opacity="1"/><line transform="translate(30,0)" x2="0" y2="5" stroke="#c3c2b7" stroke-width="1" opacity="1"/><line transform="translate(60,0)" x2="0" y2="5" stroke="#c3c2b7" stroke-width="1" opacity="1"/><line transform="translate(90,0)" x2="0" y2="5" stroke="#c3c2b7" stroke-width="1" opacity="1"/><line transform="translate(120,0)" x2="0" y2="5" stroke="#c3c2b7" stroke-width="1" opacity="1"/><line transform="translate(150,0)" x2="0" y2="5" stroke="#c3c2b7" stroke-width="1" opacity="1"/><line transform="translate(180,0)" x2="0" y2="5" stroke="#c3c2b7" stroke-width="1" opacity="1"/><line transform="translate(210,0)" x2="0" y2="5" stroke="#c3c2b7" stroke-width="1" opacity="1"/><line transform="translate(240,0)" x2="0" y2="5" stroke="#c3c2b7" stroke-width="1" opacity="1"/><line transform="translate(270,0)" x2="0" y2="5" stroke="#c3c2b7" stroke-width="1" opacity="1"/><line transform="translate(300,0)" x2="0" y2="5" stroke="#c3c2b7" stroke-width="1" opacity="1"/><line transform="translate(330,0)" x2="0" y2="5" stroke="#c3c2b7" stroke-width="1" opacity="1"/><line transform="translate(360,0)" x2="0" y2="5" stroke="#c3c2b7" stroke-width="1" opacity="1"/><line transform="translate(390,0)" x2="0" y2="5" stroke="#c3c2b7" stroke-width="1" opacity="1"/><line transform="translate(420,0)" x2="0" y2="5" stroke="#c3c2b7" stroke-width="1" opacity="1"/><line transform="translate(450,0)" x2="0" y2="5" stroke="#c3c2b7" stroke-width="1" opacity="1"/><line transform="translate(480,0)" x2="0" y2="5" stroke="#c3c2b7" stroke-width="1" opacity="1"/><line transform="translate(510,0)" x2="0" y2="5" stroke="#c3c2b7" stroke-width="1" opacity="1"/><line transform="translate(540,0)" x2="0" y2="5" stroke="#c3c2b7" stroke-width="1" opacity="1"/><line transform="translate(570,0)" x2="0" y2="5" stroke="#c3c2b7" stroke-width="1" opacity="1"/><line transform="translate(600,0)" x2="0" y2="5" stroke="#c3c2b7" stroke-width="1" opacity="1"/></g><g class="mark-text role-axis-label" pointer-events="none"><text text-anchor="start" transform="translate(0,16)" font-family="system-ui, -apple-system, &quot;Segoe UI&quot;, sans-serif" font-size="11px" fill="#898781" opacity="1">0%</text><text text-anchor="middle" transform="translate(30,16)" font-family="system-ui, -apple-system, &quot;Segoe UI&quot;, sans-serif" font-size="11px" fill="#898781" opacity="0">5%</text><text text-anchor="middle" transform="translate(60,16)" font-family="system-ui, -apple-system, &quot;Segoe UI&quot;, sans-serif" font-size="11px" fill="#898781" opacity="1">10%</text><text text-anchor="middle" transform="translate(90,16)" font-family="system-ui, -apple-system, &quot;Segoe UI&quot;, sans-serif" font-size="11px" fill="#898781" opacity="0">15%</text><text text-anchor="middle" transform="translate(120,16)" font-family="system-ui, -apple-system, &quot;Segoe UI&quot;, sans-serif" font-size="11px" fill="#898781" opacity="1">20%</text><text text-anchor="middle" transform="translate(150,16)" font-family="system-ui, -apple-system, &quot;Segoe UI&quot;, sans-serif" font-size="11px" fill="#898781" opacity="0">25%</text><text text-anchor="middle" transform="translate(180,16)" font-family="system-ui, -apple-system, &quot;Segoe UI&quot;, sans-serif" font-size="11px" fill="#898781" opacity="1">30%</text><text text-anchor="middle" transform="translate(210,16)" font-family="system-ui, -apple-system, &quot;Segoe UI&quot;, sans-serif" font-size="11px" fill="#898781" opacity="0">35%</text><text text-anchor="middle" transform="translate(240,16)" font-family="system-ui, -apple-system, &quot;Segoe UI&quot;, sans-serif" font-size="11px" fill="#898781" opacity="1">40%</text><text text-anchor="middle" transform="translate(270,16)" font-family="system-ui, -apple-system, &quot;Segoe UI&quot;, sans-serif" font-size="11px" fill="#898781" opacity="0">45%</text><text text-anchor="middle" transform="translate(300,16)" font-family="system-ui, -apple-system, &quot;Segoe UI&quot;, sans-serif" font-size="11px" fill="#898781" opacity="1">50%</text><text text-anchor="middle" transform="translate(330,16)" font-family="system-ui, -apple-system, &quot;Segoe UI&quot;, sans-serif" font-size="11px" fill="#898781" opacity="0">55%</text><text text-anchor="middle" transform="translate(360,16)" font-family="system-ui, -apple-system, &quot;Segoe UI&quot;, sans-serif" font-size="11px" fill="#898781" opacity="1">60%</text><text text-anchor="middle" transform="translate(390,16)" font-family="system-ui, -apple-system, &quot;Segoe UI&quot;, sans-serif" font-size="11px" fill="#898781" opacity="0">65%</text><text text-anchor="middle" transform="translate(420,16)" font-family="system-ui, -apple-system, &quot;Segoe UI&quot;, sans-serif" font-size="11px" fill="#898781" opacity="1">70%</text><text text-anchor="middle" transform="translate(450,16)" font-family="system-ui, -apple-system, &quot;Segoe UI&quot;, sans-serif" font-size="11px" fill="#898781" opacity="0">75%</text><text text-anchor="middle" transform="translate(480,16)" font-family="system-ui, -apple-system, &quot;Segoe UI&quot;, sans-serif" font-size="11px" fill="#898781" opacity="1">80%</text><text text-anchor="middle" transform="translate(510,16)" font-family="system-ui, -apple-system, &quot;Segoe UI&quot;, sans-serif" font-size="11px" fill="#898781" opacity="0">85%</text><text text-anchor="middle" transform="translate(540,16)" font-family="system-ui, -apple-system, &quot;Segoe UI&quot;, sans-serif" font-size="11px" fill="#898781" opacity="1">90%</text><text text-anchor="middle" transform="translate(570,16)" font-family="system-ui, -apple-system, &quot;Segoe UI&quot;, sans-serif" font-size="11px" fill="#898781" opacity="0">95%</text><text text-anchor="end" transform="translate(600,16)" font-family="system-ui, -apple-system, &quot;Segoe UI&quot;, sans-serif" font-size="11px" fill="#898781" opacity="1">100%</text></g><g class="mark-rule role-axis-domain" pointer-events="none"><line transform="translate(0,0)" x2="600" y2="0" stroke="#c3c2b7" stroke-width="1" opacity="1"/></g><g class="mark-text role-axis-title" pointer-events="none"><text text-anchor="middle" transform="translate(300,31)" font-family="system-ui, -apple-system, &quot;Segoe UI&quot;, sans-serif" font-size="12px" font-weight="normal" fill="#52514e" opacity="1">Share of reports in class</text></g></g><path class="foreground" aria-hidden="true" d="" pointer-events="none" display="none"/></g></g><g class="mark-group role-axis" role="graphics-symbol" aria-roledescription="axis" aria-label="Y-axis for a discrete scale with 3 values: Source request, Indirection (relay), Custom program"><g transform="translate(0.5,0.5)"><path class="background" aria-hidden="true" d="M0,0h0v0h0Z" pointer-events="none"/><g><g class="mark-rule role-axis-tick" pointer-events="none"><line transform="translate(0,10)" x2="-5" y2="0" stroke="#c3c2b7" stroke-width="1" opacity="1"/><line transform="translate(0,30)" x2="-5" y2="0" stroke="#c3c2b7" stroke-width="1" opacity="1"/><line transform="translate(0,50)" x2="-5" y2="0" stroke="#c3c2b7" stroke-width="1" opacity="1"/></g><g class="mark-text role-axis-label" pointer-events="none"><text text-anchor="end" transform="translate(-7,12.5)" font-family="system-ui, -apple-system, &quot;Segoe UI&quot;, sans-serif" font-size="11px" fill="#898781" opacity="1">Source request</text><text text-anchor="end" transform="translate(-7,32.5)" font-family="system-ui, -apple-system, &quot;Segoe UI&quot;, sans-serif" font-size="11px" fill="#898781" opacity="1">Indirection (relay)</text><text text-anchor="end" transform="translate(-7,52.5)" font-family="system-ui, -apple-system, &quot;Segoe UI&quot;, sans-serif" font-size="11px" fill="#898781" opacity="1">Custom program</text></g><g class="mark-rule role-axis-domain" pointer-events="none"><line transform="translate(0,0)" x2="0" y2="60" stroke="#c3c2b7" stroke-width="1" opacity="1"/></g></g><path class="foreground" aria-hidden="true" d="" pointer-events="none" display="none"/></g></g><g class="mark-group role-scope" role="graphics-object" aria-roledescription="group mark container"><g transform="translate(0,21)"><path class="background" aria-hidden="true" d="M0,0L596,0C598.207660097976,0,600,1.792339902024,600,4L600,14C600,16.207660097976,598.207660097976,18,596,18L0,18C0,18,0,18,0,18L0,0C0,0,0,0,0,0Z" stroke-width="2"/><g clip-path="url(#clip107)"><g class="mark-group role-scope" role="graphics-object" aria-roledescription="group mark container"><g transform="translate(0,0)"><path class="background" aria-hidden="true" d="M0,0h0v18h0Z"/><g><g class="mark-rect role-mark marks" role="graphics-object" aria-roledescription="rect mark container"><path aria-label="Share of reports in class: 0.941331%; broad_class: Indirection (relay); Publisher confidence: Unrated (review); conf_rank: 3; confidence: Unrated (review); reports: 43; share: 0.9%" role="graphics-symbol" aria-roledescription="bar" d="M594.3520140105079,0h5.647985989492099v18h-5.647985989492099Z" fill="#eda100" stroke="#fcfcfb" stroke-width="2"/><path aria-label="Share of reports in class: 0.021891%; broad_class: Indirection (relay); Publisher confidence: Low (background); conf_rank: 2; confidence: Low (background); reports: 1; share: 0.0%" role="graphics-symbol" aria-roledescription="bar" d="M594.2206654991244,0h0.13134851138352133v18h-0.13134851138352133Z" fill="#1baf7a" stroke="#fcfcfb" stroke-width="2"/><path aria-label="Share of reports in class: 98.971103%; broad_class: Indirection (relay); Publisher confidence: Medium (suggestive); conf_rank: 1; confidence: Medium (suggestive); reports: 4521; share: 99.0%" role="graphics-symbol" aria-roledescription="bar" d="M0.39404553415061294,0h593.8266199649738v18h-593.8266199649738Z" fill="#eb6834" stroke="#fcfcfb" stroke-width="2"/><path aria-label="Share of reports in class: 0.065674%; broad_class: Indirection (relay); Publisher confidence: High (significant); conf_rank: 0; confidence: High (significant); reports: 3; share: 0.1%" role="graphics-symbol" aria-roledescription="bar" d="M0,0h0.39404553415061294v18h-0.39404553415061294Z" fill="#2a78d6" stroke="#fcfcfb" stroke-width="2"/></g></g><path class="foreground" aria-hidden="true" d="" display="none"/></g></g></g><path class="foreground" aria-hidden="true" d="M0,0L596,0C598.207660097976,0,600,1.792339902024,600,4L600,14C600,16.207660097976,598.207660097976,18,596,18L0,18C0,18,0,18,0,18L0,0C0,0,0,0,0,0Z" stroke="#fcfcfb" stroke-width="2"/></g><g transform="translate(0,1)"><path class="background" aria-hidden="true" d="M0,0L596,0C598.207660097976,0,600,1.792339902024,600,4L600,14C600,16.207660097976,598.207660097976,18,596,18L0,18C0,18,0,18,0,18L0,0C0,0,0,0,0,0Z" stroke-width="2"/><g clip-path="url(#clip108)"><g class="mark-group role-scope" role="graphics-object" aria-roledescription="group mark container"><g transform="translate(0,0)"><path class="background" aria-hidden="true" d="M0,0h0v18h0Z"/><g><g class="mark-rect role-mark marks" role="graphics-object" aria-roledescription="rect mark container"><path aria-label="Share of reports in class: 1.433943%; broad_class: Source request; Publisher confidence: Unrated (review); conf_rank: 3; confidence: Unrated (review); reports: 389; share: 1.4%" role="graphics-symbol" aria-roledescription="bar" d="M591.3963432615748,0h8.60365673842523v18h-8.60365673842523Z" fill="#eda100" stroke="#fcfcfb" stroke-width="2"/><path aria-label="Share of reports in class: 0.287526%; broad_class: Source request; Publisher confidence: Low (background); conf_rank: 2; confidence: Low (background); reports: 78; share: 0.3%" role="graphics-symbol" aria-roledescription="bar" d="M589.6711884399882,0h1.7251548215865569v18h-1.7251548215865569Z" fill="#1baf7a" stroke="#fcfcfb" stroke-width="2"/><path aria-label="Share of reports in class: 98.278531%; broad_class: Source request; Publisher confidence: Medium (suggestive); conf_rank: 1; confidence: Medium (suggestive); reports: 26661; share: 98.3%" role="graphics-symbol" aria-roledescription="bar" d="M0,0h589.6711884399882v18h-589.6711884399882Z" fill="#eb6834" stroke="#fcfcfb" stroke-width="2"/></g></g><path class="foreground" aria-hidden="true" d="" display="none"/></g></g></g><path class="foreground" aria-hidden="true" d="M0,0L596,0C598.207660097976,0,600,1.792339902024,600,4L600,14C600,16.207660097976,598.207660097976,18,596,18L0,18C0,18,0,18,0,18L0,0C0,0,0,0,0,0Z" stroke="#fcfcfb" stroke-width="2"/></g><g transform="translate(0,41)"><path class="background" aria-hidden="true" d="M0,0L596,0C598.207660097976,0,600,1.792339902024,600,4L600,14C600,16.207660097976,598.207660097976,18,596,18L0,18C0,18,0,18,0,18L0,0C0,0,0,0,0,0Z" stroke-width="2"/><g clip-path="url(#clip109)"><g class="mark-group role-scope" role="graphics-object" aria-roledescription="group mark container"><g transform="translate(0,0)"><path class="background" aria-hidden="true" d="M0,0h0v18h0Z"/><g><g class="mark-rect role-mark marks" role="graphics-object" aria-roledescription="rect mark container"><path aria-label="Share of reports in class: 100.000000%; broad_class: Custom program; Publisher confidence: High (significant); conf_rank: 0; confidence: High (significant); reports: 6464; share: 100.0%" role="graphics-symbol" aria-roledescription="bar" d="M0,0h600v18h-600Z" fill="#2a78d6" stroke="#fcfcfb" stroke-width="2"/></g></g><path class="foreground" aria-hidden="true" d="" display="none"/></g></g></g><path class="foreground" aria-hidden="true" d="M0,0L596,0C598.207660097976,0,600,1.792339902024,600,4L600,14C600,16.207660097976,598.207660097976,18,596,18L0,18C0,18,0,18,0,18L0,0C0,0,0,0,0,0Z" stroke="#fcfcfb" stroke-width="2"/></g></g><g class="mark-group role-legend" role="graphics-symbol" aria-roledescription="legend" aria-label="Symbol legend titled 'Publisher confidence' for fill color with 4 values: High (significant), Medium (suggestive), Low (background), Unrated (review)"><g transform="translate(0,-48)"><path class="background" aria-hidden="true" d="M0,0h420v29h-420Z" pointer-events="none"/><g><g class="mark-group role-legend-entry"><g transform="translate(0,16)"><path class="background" aria-hidden="true" d="M0,0h0v0h0Z" pointer-events="none"/><g><g class="mark-group role-scope" role="graphics-object" aria-roledescription="group mark container"><g transform="translate(0,0)"><path class="background" aria-hidden="true" d="M0,0h90.47265625v13h-90.47265625Z" pointer-events="none" opacity="1"/><g><g class="mark-symbol role-legend-symbol" pointer-events="none"><path transform="translate(6,6)" d="M-5,-5h10v10h-10Z" fill="#2a78d6" stroke="#fcfcfb" stroke-width="2" opacity="1"/></g><g class="mark-text role-legend-label" pointer-events="none"><text text-anchor="start" transform="translate(16,9)" font-family="system-ui, -apple-system, &quot;Segoe UI&quot;, sans-serif" font-size="10px" fill="#52514e" opacity="1">High (significant)</text></g></g><path class="foreground" aria-hidden="true" d="" pointer-events="none" display="none"/></g><g transform="translate(102,0)"><path class="background" aria-hidden="true" d="M0,0h108.8125v13h-108.8125Z" pointer-events="none" opacity="1"/><g><g class="mark-symbol role-legend-symbol" pointer-events="none"><path transform="translate(6,6)" d="M-5,-5h10v10h-10Z" fill="#eb6834" stroke="#fcfcfb" stroke-width="2" opacity="1"/></g><g class="mark-text role-legend-label" pointer-events="none"><text text-anchor="start" transform="translate(16,9)" font-family="system-ui, -apple-system, &quot;Segoe UI&quot;, sans-serif" font-size="10px" fill="#52514e" opacity="1">Medium (suggestive)</text></g></g><path class="foreground" aria-hidden="true" d="" pointer-events="none" display="none"/></g><g transform="translate(222,0)"><path class="background" aria-hidden="true" d="M0,0h96.0439453125v13h-96.0439453125Z" pointer-events="none" opacity="1"/><g><g class="mark-symbol role-legend-symbol" pointer-events="none"><path transform="translate(6,6)" d="M-5,-5h10v10h-10Z" fill="#1baf7a" stroke="#fcfcfb" stroke-width="2" opacity="1"/></g><g class="mark-text role-legend-label" pointer-events="none"><text text-anchor="start" transform="translate(16,9)" font-family="system-ui, -apple-system, &quot;Segoe UI&quot;, sans-serif" font-size="10px" fill="#52514e" opacity="1">Low (background)</text></g></g><path class="foreground" aria-hidden="true" d="" pointer-events="none" display="none"/></g><g transform="translate(330,0)"><path class="background" aria-hidden="true" d="M0,0h89.9111328125v13h-89.9111328125Z" pointer-events="none" opacity="1"/><g><g class="mark-symbol role-legend-symbol" pointer-events="none"><path transform="translate(6,6)" d="M-5,-5h10v10h-10Z" fill="#eda100" stroke="#fcfcfb" stroke-width="2" opacity="1"/></g><g class="mark-text role-legend-label" pointer-events="none"><text text-anchor="start" transform="translate(16,9)" font-family="system-ui, -apple-system, &quot;Segoe UI&quot;, sans-serif" font-size="10px" fill="#52514e" opacity="1">Unrated (review)</text></g></g><path class="foreground" aria-hidden="true" d="" pointer-events="none" display="none"/></g></g></g><path class="foreground" aria-hidden="true" d="" pointer-events="none" display="none"/></g></g><g class="mark-text role-legend-title" pointer-events="none"><text text-anchor="start" transform="translate(0,9)" font-family="system-ui, -apple-system, &quot;Segoe UI&quot;, sans-serif" font-size="11px" font-weight="normal" fill="#52514e" opacity="1">Publisher confidence</text></g></g><path class="foreground" aria-hidden="true" d="" pointer-events="none" display="none"/></g></g><g class="mark-group role-title"><g transform="translate(-91.97607421875,-80)"><path class="background" aria-hidden="true" d="M0,0h0v0h0Z" pointer-events="none"/><g><g class="mark-text role-title-text" role="graphics-symbol" aria-roledescription="title" aria-label="Title text '100% of custom-program reports are rated significant'" pointer-events="none"><text text-anchor="start" transform="translate(0,11)" font-family="system-ui, -apple-system, &quot;Segoe UI&quot;, sans-serif" font-size="14px" font-weight="600" fill="#0b0b0b" opacity="1">100% of custom-program reports are rated significant</text></g><g class="mark-text role-title-subtitle" role="graphics-symbol" aria-roledescription="subtitle" aria-label="Subtitle text 'Publisher confidence within each method class (all dispositions) · Source: Transluce all-reports.csv'" pointer-events="none"><text text-anchor="start" transform="translate(0,26)" font-family="system-ui, -apple-system, &quot;Segoe UI&quot;, sans-serif" font-size="12px" fill="#52514e" opacity="1">Publisher confidence within each method class (all dispositions) · Source: Transluce all-reports.csv</text></g></g><path class="foreground" aria-hidden="true" d="" pointer-events="none" display="none"/></g></g></g><path class="foreground" aria-hidden="true" d="" display="none"/></g></g></g><defs><clipPath id="clip107"><path d="M0,0L596,0C598.207660097976,0,600,1.792339902024,600,4L600,14C600,16.207660097976,598.207660097976,18,596,18L0,18C0,18,0,18,0,18L0,0C0,0,0,0,0,0Z"/></clipPath><clipPath id="clip108"><path d="M0,0L596,0C598.207660097976,0,600,1.792339902024,600,4L600,14C600,16.207660097976,598.207660097976,18,596,18L0,18C0,18,0,18,0,18L0,0C0,0,0,0,0,0Z"/></clipPath><clipPath id="clip109"><path d="M0,0L596,0C598.207660097976,0,600,1.792339902024,600,4L600,14C600,16.207660097976,598.207660097976,18,596,18L0,18C0,18,0,18,0,18L0,0C0,0,0,0,0,0Z"/></clipPath></defs></svg>