<svg xmlns="http://www.w3.org/2000/svg" xmlns:xlink="http://www.w3.org/1999/xlink" version="1.1" class="marks" width="685" height="247" viewBox="0 0 685 247"><rect width="685" height="247" fill="#fcfcfb"/><g fill="none" stroke-miterlimit="10" transform="translate(118,69)"><g class="mark-group role-frame root" role="graphics-object" aria-roledescription="group mark container"><g transform="translate(0,0)"><path class="background" aria-hidden="true" d="M0,0h560v140h-560Z"/><g><g class="mark-group role-axis" role="graphics-symbol" aria-roledescription="axis" aria-label="X-axis titled 'Published package names' for a linear scale with values from 0 to 140"><g transform="translate(0.5,140.5)"><path class="background" aria-hidden="true" d="M0,0h0v0h0Z" pointer-events="none"/><g><g class="mark-rule role-axis-tick" pointer-events="none"><line transform="translate(0,0)" x2="0" y2="5" stroke="#c3c2b7" stroke-width="1" opacity="1"/><line transform="translate(40,0)" x2="0" y2="5" stroke="#c3c2b7" stroke-width="1" opacity="1"/><line transform="translate(80,0)" x2="0" y2="5" stroke="#c3c2b7" stroke-width="1" opacity="1"/><line transform="translate(120,0)" x2="0" y2="5" stroke="#c3c2b7" stroke-width="1" opacity="1"/><line transform="translate(160,0)" x2="0" y2="5" stroke="#c3c2b7" stroke-width="1" opacity="1"/><line transform="translate(200,0)" x2="0" y2="5" stroke="#c3c2b7" stroke-width="1" opacity="1"/><line transform="translate(240,0)" x2="0" y2="5" stroke="#c3c2b7" stroke-width="1" opacity="1"/><line transform="translate(280,0)" x2="0" y2="5" stroke="#c3c2b7" stroke-width="1" opacity="1"/><line transform="translate(320,0)" x2="0" y2="5" stroke="#c3c2b7" stroke-width="1" opacity="1"/><line transform="translate(360,0)" x2="0" y2="5" stroke="#c3c2b7" stroke-width="1" opacity="1"/><line transform="translate(400,0)" x2="0" y2="5" stroke="#c3c2b7" stroke-width="1" opacity="1"/><line transform="translate(440,0)" x2="0" y2="5" stroke="#c3c2b7" stroke-width="1" opacity="1"/><line transform="translate(480,0)" x2="0" y2="5" stroke="#c3c2b7" stroke-width="1" opacity="1"/><line transform="translate(520,0)" x2="0" y2="5" stroke="#c3c2b7" stroke-width="1" opacity="1"/><line transform="translate(560,0)" x2="0" y2="5" stroke="#c3c2b7" stroke-width="1" opacity="1"/></g><g class="mark-text role-axis-label" pointer-events="none"><text text-anchor="start" transform="translate(0,16)" font-family="system-ui, -apple-system, &quot;Segoe UI&quot;, sans-serif" font-size="11px" fill="#898781" opacity="1">0</text><text text-anchor="middle" transform="translate(40,16)" font-family="system-ui, -apple-system, &quot;Segoe UI&quot;, sans-serif" font-size="11px" fill="#898781" opacity="1">10</text><text text-anchor="middle" transform="translate(80,16)" font-family="system-ui, -apple-system, &quot;Segoe UI&quot;, sans-serif" font-size="11px" fill="#898781" opacity="1">20</text><text text-anchor="middle" transform="translate(120,16)" font-family="system-ui, -apple-system, &quot;Segoe UI&quot;, sans-serif" font-size="11px" fill="#898781" opacity="1">30</text><text text-anchor="middle" transform="translate(160,16)" font-family="system-ui, -apple-system, &quot;Segoe UI&quot;, sans-serif" font-size="11px" fill="#898781" opacity="1">40</text><text text-anchor="middle" transform="translate(200,16)" font-family="system-ui, -apple-system, &quot;Segoe UI&quot;, sans-serif" font-size="11px" fill="#898781" opacity="1">50</text><text text-anchor="middle" transform="translate(240,16)" font-family="system-ui, -apple-system, &quot;Segoe UI&quot;, sans-serif" font-size="11px" fill="#898781" opacity="1">60</text><text text-anchor="middle" transform="translate(280,16)" font-family="system-ui, -apple-system, &quot;Segoe UI&quot;, sans-serif" font-size="11px" fill="#898781" opacity="1">70</text><text text-anchor="middle" transform="translate(320,16)" font-family="system-ui, -apple-system, &quot;Segoe UI&quot;, sans-serif" font-size="11px" fill="#898781" opacity="1">80</text><text text-anchor="middle" transform="translate(360,16)" font-family="system-ui, -apple-system, &quot;Segoe UI&quot;, sans-serif" font-size="11px" fill="#898781" opacity="1">90</text><text text-anchor="middle" transform="translate(400,16)" font-family="system-ui, -apple-system, &quot;Segoe UI&quot;, sans-serif" font-size="11px" fill="#898781" opacity="1">100</text><text text-anchor="middle" transform="translate(440,16)" font-family="system-ui, -apple-system, &quot;Segoe UI&quot;, sans-serif" font-size="11px" fill="#898781" opacity="1">110</text><text text-anchor="middle" transform="translate(480,16)" font-family="system-ui, -apple-system, &quot;Segoe UI&quot;, sans-serif" font-size="11px" fill="#898781" opacity="1">120</text><text text-anchor="middle" transform="translate(520,16)" font-family="system-ui, -apple-system, &quot;Segoe UI&quot;, sans-serif" font-size="11px" fill="#898781" opacity="1">130</text><text text-anchor="end" transform="translate(560,16)" font-family="system-ui, -apple-system, &quot;Segoe UI&quot;, sans-serif" font-size="11px" fill="#898781" opacity="1">140</text></g><g class="mark-rule role-axis-domain" pointer-events="none"><line transform="translate(0,0)" x2="560" y2="0" stroke="#c3c2b7" stroke-width="1" opacity="1"/></g><g class="mark-text role-axis-title" pointer-events="none"><text text-anchor="middle" transform="translate(280,31)" font-family="system-ui, -apple-system, &quot;Segoe UI&quot;, sans-serif" font-size="12px" font-weight="normal" fill="#52514e" opacity="1">Published package names</text></g></g><path class="foreground" aria-hidden="true" d="" pointer-events="none" display="none"/></g></g><g class="mark-group role-axis" role="graphics-symbol" aria-roledescription="axis" aria-label="Y-axis for a discrete scale with 7 values: VCS / tooling tests, UK council targets, Proxy / fetch relays, Doc-build exploitation, Test / probe, Serial 'oai' names, Other"><g transform="translate(0.5,0.5)"><path class="background" aria-hidden="true" d="M0,0h0v0h0Z" pointer-events="none"/><g><g class="mark-rule role-axis-tick" pointer-events="none"><line transform="translate(0,10)" x2="-5" y2="0" stroke="#c3c2b7" stroke-width="1" opacity="1"/><line transform="translate(0,30)" x2="-5" y2="0" stroke="#c3c2b7" stroke-width="1" opacity="1"/><line transform="translate(0,50)" x2="-5" y2="0" stroke="#c3c2b7" stroke-width="1" opacity="1"/><line transform="translate(0,70)" x2="-5" y2="0" stroke="#c3c2b7" stroke-width="1" opacity="1"/><line transform="translate(0,90)" x2="-5" y2="0" stroke="#c3c2b7" stroke-width="1" opacity="1"/><line transform="translate(0,110)" x2="-5" y2="0" stroke="#c3c2b7" stroke-width="1" opacity="1"/><line transform="translate(0,130)" x2="-5" y2="0" stroke="#c3c2b7" stroke-width="1" opacity="1"/></g><g class="mark-text role-axis-label" pointer-events="none"><text text-anchor="end" transform="translate(-7,12.5)" font-family="system-ui, -apple-system, &quot;Segoe UI&quot;, sans-serif" font-size="11px" fill="#898781" opacity="1">VCS / tooling tests</text><text text-anchor="end" transform="translate(-7,32.5)" font-family="system-ui, -apple-system, &quot;Segoe UI&quot;, sans-serif" font-size="11px" fill="#898781" opacity="1">UK council targets</text><text text-anchor="end" transform="translate(-7,52.5)" font-family="system-ui, -apple-system, &quot;Segoe UI&quot;, sans-serif" font-size="11px" fill="#898781" opacity="1">Proxy / fetch relays</text><text text-anchor="end" transform="translate(-7,72.5)" font-family="system-ui, -apple-system, &quot;Segoe UI&quot;, sans-serif" font-size="11px" fill="#898781" opacity="1">Doc-build exploitation</text><text text-anchor="end" transform="translate(-7,92.5)" font-family="system-ui, -apple-system, &quot;Segoe UI&quot;, sans-serif" font-size="11px" fill="#898781" opacity="1">Test / probe</text><text text-anchor="end" transform="translate(-7,112.5)" font-family="system-ui, -apple-system, &quot;Segoe UI&quot;, sans-serif" font-size="11px" fill="#898781" opacity="1">Serial 'oai' names</text><text text-anchor="end" transform="translate(-7,132.5)" font-family="system-ui, -apple-system, &quot;Segoe UI&quot;, sans-serif" font-size="11px" fill="#898781" opacity="1">Other</text></g><g class="mark-rule role-axis-domain" pointer-events="none"><line transform="translate(0,0)" x2="0" y2="140" stroke="#c3c2b7" stroke-width="1" opacity="1"/></g></g><path class="foreground" aria-hidden="true" d="" pointer-events="none" display="none"/></g></g><g class="mark-group role-scope" role="graphics-object" aria-roledescription="group mark container"><g transform="translate(0,21)"><path class="background" aria-hidden="true" d="M0,0L116,0C118.207660097976,0,120,1.792339902024,120,4L120,14C120,16.207660097976,118.207660097976,18,116,18L0,18C0,18,0,18,0,18L0,0C0,0,0,0,0,0Z" stroke-width="2"/><g clip-path="url(#clip19)"><g class="mark-group role-scope" role="graphics-object" aria-roledescription="group mark container"><g transform="translate(0,0)"><path class="background" aria-hidden="true" d="M0,0h0v18h0Z"/><g><g class="mark-rect role-mark marks" role="graphics-object" aria-roledescription="rect mark container"><path aria-label="Published package names: 1; theme: UK council targets; self_id: Contains 'oai'; gems: 1" role="graphics-symbol" aria-roledescription="bar" d="M0,0h4v18h-4Z" fill="#2a78d6" stroke="#fcfcfb" stroke-width="2"/><path aria-label="Published package names: 29; theme: UK council targets; self_id: No 'oai' token; gems: 29" role="graphics-symbol" aria-roledescription="bar" d="M4,0h116v18h-116Z" fill="#eb6834" stroke="#fcfcfb" stroke-width="2"/></g></g><path class="foreground" aria-hidden="true" d="" display="none"/></g></g></g><path class="foreground" aria-hidden="true" d="M0,0L116,0C118.207660097976,0,120,1.792339902024,120,4L120,14C120,16.207660097976,118.207660097976,18,116,18L0,18C0,18,0,18,0,18L0,0C0,0,0,0,0,0Z" stroke="#fcfcfb" stroke-width="2"/></g><g transform="translate(0,121)"><path class="background" aria-hidden="true" d="M0,0L20,0C22.207660097976,0,24,1.792339902024,24,4L24,14C24,16.207660097976,22.207660097976,18,20,18L0,18C0,18,0,18,0,18L0,0C0,0,0,0,0,0Z" stroke-width="2"/><g clip-path="url(#clip20)"><g class="mark-group role-scope" role="graphics-object" aria-roledescription="group mark container"><g transform="translate(0,0)"><path class="background" aria-hidden="true" d="M0,0h0v18h0Z"/><g><g class="mark-rect role-mark marks" role="graphics-object" aria-roledescription="rect mark container"><path aria-label="Published package names: 5; theme: Other; self_id: No 'oai' token; gems: 5" role="graphics-symbol" aria-roledescription="bar" d="M4,0h20v18h-20Z" fill="#eb6834" stroke="#fcfcfb" stroke-width="2"/><path aria-label="Published package names: 1; theme: Other; self_id: Contains 'oai'; gems: 1" role="graphics-symbol" aria-roledescription="bar" d="M0,0h4v18h-4Z" fill="#2a78d6" stroke="#fcfcfb" stroke-width="2"/></g></g><path class="foreground" aria-hidden="true" d="" display="none"/></g></g></g><path class="foreground" aria-hidden="true" d="M0,0L20,0C22.207660097976,0,24,1.792339902024,24,4L24,14C24,16.207660097976,22.207660097976,18,20,18L0,18C0,18,0,18,0,18L0,0C0,0,0,0,0,0Z" stroke="#fcfcfb" stroke-width="2"/></g><g transform="translate(0,81)"><path class="background" aria-hidden="true" d="M0,0L104,0C106.207660097976,0,108,1.792339902024,108,4L108,14C108,16.207660097976,106.207660097976,18,104,18L0,18C0,18,0,18,0,18L0,0C0,0,0,0,0,0Z" stroke-width="2"/><g clip-path="url(#clip21)"><g class="mark-group role-scope" role="graphics-object" aria-roledescription="group mark container"><g transform="translate(0,0)"><path class="background" aria-hidden="true" d="M0,0h0v18h0Z"/><g><g class="mark-rect role-mark marks" role="graphics-object" aria-roledescription="rect mark container"><path aria-label="Published package names: 27; theme: Test / probe; self_id: Contains 'oai'; gems: 27" role="graphics-symbol" aria-roledescription="bar" d="M0,0h108v18h-108Z" fill="#2a78d6" stroke="#fcfcfb" stroke-width="2"/></g></g><path class="foreground" aria-hidden="true" d="" display="none"/></g></g></g><path class="foreground" aria-hidden="true" d="M0,0L104,0C106.207660097976,0,108,1.792339902024,108,4L108,14C108,16.207660097976,106.207660097976,18,104,18L0,18C0,18,0,18,0,18L0,0C0,0,0,0,0,0Z" stroke="#fcfcfb" stroke-width="2"/></g><g transform="translate(0,41)"><path class="background" aria-hidden="true" d="M0,0L112.00000000000001,0C114.20766009797602,0,116.00000000000001,1.792339902024,116.00000000000001,4L116.00000000000001,14C116.00000000000001,16.207660097976,114.20766009797602,18,112.00000000000001,18L0,18C0,18,0,18,0,18L0,0C0,0,0,0,0,0Z" stroke-width="2"/><g clip-path="url(#clip22)"><g class="mark-group role-scope" role="graphics-object" aria-roledescription="group mark container"><g transform="translate(0,0)"><path class="background" aria-hidden="true" d="M0,0h0v18h0Z"/><g><g class="mark-rect role-mark marks" role="graphics-object" aria-roledescription="rect mark container"><path aria-label="Published package names: 16; theme: Proxy / fetch relays; self_id: Contains 'oai'; gems: 16" role="graphics-symbol" aria-roledescription="bar" d="M0,0h64v18h-64Z" fill="#2a78d6" stroke="#fcfcfb" stroke-width="2"/><path aria-label="Published package names: 13; theme: Proxy / fetch relays; self_id: No 'oai' token; gems: 13" role="graphics-symbol" aria-roledescription="bar" d="M64,0h52.000000000000014v18h-52.000000000000014Z" fill="#eb6834" stroke="#fcfcfb" stroke-width="2"/></g></g><path class="foreground" aria-hidden="true" d="" display="none"/></g></g></g><path class="foreground" aria-hidden="true" d="M0,0L112.00000000000001,0C114.20766009797602,0,116.00000000000001,1.792339902024,116.00000000000001,4L116.00000000000001,14C116.00000000000001,16.207660097976,114.20766009797602,18,112.00000000000001,18L0,18C0,18,0,18,0,18L0,0C0,0,0,0,0,0Z" stroke="#fcfcfb" stroke-width="2"/></g><g transform="translate(0,101)"><path class="background" aria-hidden="true" d="M0,0L556,0C558.207660097976,0,560,1.792339902024,560,4L560,14C560,16.207660097976,558.207660097976,18,556,18L0,18C0,18,0,18,0,18L0,0C0,0,0,0,0,0Z" stroke-width="2"/><g clip-path="url(#clip23)"><g class="mark-group role-scope" role="graphics-object" aria-roledescription="group mark container"><g transform="translate(0,0)"><path class="background" aria-hidden="true" d="M0,0h0v18h0Z"/><g><g class="mark-rect role-mark marks" role="graphics-object" aria-roledescription="rect mark container"><path aria-label="Published package names: 140; theme: Serial 'oai' names; self_id: Contains 'oai'; gems: 140" role="graphics-symbol" aria-roledescription="bar" d="M0,0h560v18h-560Z" fill="#2a78d6" stroke="#fcfcfb" stroke-width="2"/></g></g><path class="foreground" aria-hidden="true" d="" display="none"/></g></g></g><path class="foreground" aria-hidden="true" d="M0,0L556,0C558.207660097976,0,560,1.792339902024,560,4L560,14C560,16.207660097976,558.207660097976,18,556,18L0,18C0,18,0,18,0,18L0,0C0,0,0,0,0,0Z" stroke="#fcfcfb" stroke-width="2"/></g><g transform="translate(0,1)"><path class="background" aria-hidden="true" d="M0,0L192,0C194.207660097976,0,196,1.792339902024,196,4L196,14C196,16.207660097976,194.207660097976,18,192,18L0,18C0,18,0,18,0,18L0,0C0,0,0,0,0,0Z" stroke-width="2"/><g clip-path="url(#clip24)"><g class="mark-group role-scope" role="graphics-object" aria-roledescription="group mark container"><g transform="translate(0,0)"><path class="background" aria-hidden="true" d="M0,0h0v18h0Z"/><g><g class="mark-rect role-mark marks" role="graphics-object" aria-roledescription="rect mark container"><path aria-label="Published package names: 49; theme: VCS / tooling tests; self_id: Contains 'oai'; gems: 49" role="graphics-symbol" aria-roledescription="bar" d="M0,0h196v18h-196Z" fill="#2a78d6" stroke="#fcfcfb" stroke-width="2"/></g></g><path class="foreground" aria-hidden="true" d="" display="none"/></g></g></g><path class="foreground" aria-hidden="true" d="M0,0L192,0C194.207660097976,0,196,1.792339902024,196,4L196,14C196,16.207660097976,194.207660097976,18,192,18L0,18C0,18,0,18,0,18L0,0C0,0,0,0,0,0Z" stroke="#fcfcfb" stroke-width="2"/></g><g transform="translate(0,61)"><path class="background" aria-hidden="true" d="M0,0L16,0C18.207660097976,0,20,1.792339902024,20,4L20,14C20,16.207660097976,18.207660097976,18,16,18L0,18C0,18,0,18,0,18L0,0C0,0,0,0,0,0Z" stroke-width="2"/><g clip-path="url(#clip25)"><g class="mark-group role-scope" role="graphics-object" aria-roledescription="group mark container"><g transform="translate(0,0)"><path class="background" aria-hidden="true" d="M0,0h0v18h0Z"/><g><g class="mark-rect role-mark marks" role="graphics-object" aria-roledescription="rect mark container"><path aria-label="Published package names: 5; theme: Doc-build exploitation; self_id: No 'oai' token; gems: 5" role="graphics-symbol" aria-roledescription="bar" d="M0,0h20v18h-20Z" fill="#eb6834" stroke="#fcfcfb" stroke-width="2"/></g></g><path class="foreground" aria-hidden="true" d="" display="none"/></g></g></g><path class="foreground" aria-hidden="true" d="M0,0L16,0C18.207660097976,0,20,1.792339902024,20,4L20,14C20,16.207660097976,18.207660097976,18,16,18L0,18C0,18,0,18,0,18L0,0C0,0,0,0,0,0Z" stroke="#fcfcfb" stroke-width="2"/></g></g><g class="mark-group role-legend" role="graphics-symbol" aria-roledescription="legend" aria-label="Symbol legend for fill color with 2 values: Contains 'oai', No 'oai' token"><g transform="translate(0,-32)"><path class="background" aria-hidden="true" d="M0,0h163v13h-163Z" pointer-events="none"/><g><g class="mark-group role-legend-entry"><g transform="translate(0,0)"><path class="background" aria-hidden="true" d="M0,0h0v0h0Z" pointer-events="none"/><g><g class="mark-group role-scope" role="graphics-object" aria-roledescription="group mark container"><g transform="translate(0,0)"><path class="background" aria-hidden="true" d="M0,0h75.4091796875v13h-75.4091796875Z" pointer-events="none" opacity="1"/><g><g class="mark-symbol role-legend-symbol" pointer-events="none"><path transform="translate(6,6)" d="M-5,-5h10v10h-10Z" fill="#2a78d6" stroke="#fcfcfb" stroke-width="2" opacity="1"/></g><g class="mark-text role-legend-label" pointer-events="none"><text text-anchor="start" transform="translate(16,9)" font-family="system-ui, -apple-system, &quot;Segoe UI&quot;, sans-serif" font-size="10px" fill="#52514e" opacity="1">Contains 'oai'</text></g></g><path class="foreground" aria-hidden="true" d="" pointer-events="none" display="none"/></g><g transform="translate(87,0)"><path class="background" aria-hidden="true" d="M0,0h75.9658203125v13h-75.9658203125Z" pointer-events="none" opacity="1"/><g><g class="mark-symbol role-legend-symbol" pointer-events="none"><path transform="translate(6,6)" d="M-5,-5h10v10h-10Z" fill="#eb6834" stroke="#fcfcfb" stroke-width="2" opacity="1"/></g><g class="mark-text role-legend-label" pointer-events="none"><text text-anchor="start" transform="translate(16,9)" font-family="system-ui, -apple-system, &quot;Segoe UI&quot;, sans-serif" font-size="10px" fill="#52514e" opacity="1">No 'oai' token</text></g></g><path class="foreground" aria-hidden="true" d="" pointer-events="none" display="none"/></g></g></g><path class="foreground" aria-hidden="true" d="" pointer-events="none" display="none"/></g></g></g><path class="foreground" aria-hidden="true" d="" pointer-events="none" display="none"/></g></g><g class="mark-group role-title"><g transform="translate(-112.17138671875,-64)"><path class="background" aria-hidden="true" d="M0,0h0v0h0Z" pointer-events="none"/><g><g class="mark-text role-title-text" role="graphics-symbol" aria-roledescription="title" aria-label="Title text '82% of the published names carry an 'oai' token; council-targeting names mostly don't'" pointer-events="none"><text text-anchor="start" transform="translate(0,11)" font-family="system-ui, -apple-system, &quot;Segoe UI&quot;, sans-serif" font-size="14px" font-weight="600" fill="#0b0b0b" opacity="1">82% of the published names carry an 'oai' token; council-targeting names mostly don't</text></g><g class="mark-text role-title-subtitle" role="graphics-symbol" aria-roledescription="subtitle" aria-label="Subtitle text 'Published gem names by theme (ordered keyword rules) and self-identification · Source: rubyhack.ai report'" pointer-events="none"><text text-anchor="start" transform="translate(0,26)" font-family="system-ui, -apple-system, &quot;Segoe UI&quot;, sans-serif" font-size="12px" fill="#52514e" opacity="1">Published gem names by theme (ordered keyword rules) and self-identification · Source: rubyhack.ai report</text></g></g><path class="foreground" aria-hidden="true" d="" pointer-events="none" display="none"/></g></g></g><path class="foreground" aria-hidden="true" d="" display="none"/></g></g></g><defs><clipPath id="clip19"><path d="M0,0L116,0C118.207660097976,0,120,1.792339902024,120,4L120,14C120,16.207660097976,118.207660097976,18,116,18L0,18C0,18,0,18,0,18L0,0C0,0,0,0,0,0Z"/></clipPath><clipPath id="clip20"><path d="M0,0L20,0C22.207660097976,0,24,1.792339902024,24,4L24,14C24,16.207660097976,22.207660097976,18,20,18L0,18C0,18,0,18,0,18L0,0C0,0,0,0,0,0Z"/></clipPath><clipPath id="clip21"><path d="M0,0L104,0C106.207660097976,0,108,1.792339902024,108,4L108,14C108,16.207660097976,106.207660097976,18,104,18L0,18C0,18,0,18,0,18L0,0C0,0,0,0,0,0Z"/></clipPath><clipPath id="clip22"><path d="M0,0L112.00000000000001,0C114.20766009797602,0,116.00000000000001,1.792339902024,116.00000000000001,4L116.00000000000001,14C116.00000000000001,16.207660097976,114.20766009797602,18,112.00000000000001,18L0,18C0,18,0,18,0,18L0,0C0,0,0,0,0,0Z"/></clipPath><clipPath id="clip23"><path d="M0,0L556,0C558.207660097976,0,560,1.792339902024,560,4L560,14C560,16.207660097976,558.207660097976,18,556,18L0,18C0,18,0,18,0,18L0,0C0,0,0,0,0,0Z"/></clipPath><clipPath id="clip24"><path d="M0,0L192,0C194.207660097976,0,196,1.792339902024,196,4L196,14C196,16.207660097976,194.207660097976,18,192,18L0,18C0,18,0,18,0,18L0,0C0,0,0,0,0,0Z"/></clipPath><clipPath id="clip25"><path d="M0,0L16,0C18.207660097976,0,20,1.792339902024,20,4L20,14C20,16.207660097976,18.207660097976,18,16,18L0,18C0,18,0,18,0,18L0,0C0,0,0,0,0,0Z"/></clipPath></defs></svg>