<svg xmlns="http://www.w3.org/2000/svg" xmlns:xlink="http://www.w3.org/1999/xlink" version="1.1" class="marks" width="742" height="348" viewBox="0 0 742 348"><rect width="742" height="348" fill="#fcfcfb"/><g fill="none" stroke-miterlimit="10" transform="translate(57,50)"><g class="mark-group role-frame root" role="graphics-object" aria-roledescription="group mark container"><g transform="translate(0,0)"><path class="background" aria-hidden="true" d="M0,0h680v260h-680Z"/><g><g class="mark-group role-axis" aria-hidden="true"><g transform="translate(0.5,0.5)"><path class="background" aria-hidden="true" d="M0,0h0v0h0Z" pointer-events="none"/><g><g class="mark-rule role-axis-grid" pointer-events="none"><line transform="translate(0,260)" x2="680" y2="0" stroke="#e1e0d9" stroke-width="1" opacity="1"/><line transform="translate(0,81)" x2="680" y2="0" stroke="#e1e0d9" stroke-width="1" opacity="1"/><line transform="translate(0,58)" x2="680" y2="0" stroke="#e1e0d9" stroke-width="1" opacity="1"/><line transform="translate(0,44)" x2="680" y2="0" stroke="#e1e0d9" stroke-width="1" opacity="1"/><line transform="translate(0,34)" x2="680" y2="0" stroke="#e1e0d9" stroke-width="1" opacity="1"/><line transform="translate(0,27)" x2="680" y2="0" stroke="#e1e0d9" stroke-width="1" opacity="1"/><line transform="translate(0,20)" x2="680" y2="0" stroke="#e1e0d9" stroke-width="1" opacity="1"/><line transform="translate(0,15)" x2="680" y2="0" stroke="#e1e0d9" stroke-width="1" opacity="1"/><line transform="translate(0,11)" x2="680" y2="0" stroke="#e1e0d9" stroke-width="1" opacity="1"/><line transform="translate(0,7)" x2="680" y2="0" stroke="#e1e0d9" stroke-width="1" opacity="1"/><line transform="translate(0,3)" x2="680" y2="0" stroke="#e1e0d9" stroke-width="1" opacity="1"/><line transform="translate(0,0)" x2="680" y2="0" stroke="#e1e0d9" stroke-width="1" opacity="1"/></g></g><path class="foreground" aria-hidden="true" d="" pointer-events="none" display="none"/></g></g><g class="mark-group role-axis" role="graphics-symbol" aria-roledescription="axis" aria-label="X-axis titled 'UTC day' for a time scale with values from May 02 to June 21"><g transform="translate(0.5,260.5)"><path class="background" aria-hidden="true" d="M0,0h0v0h0Z" pointer-events="none"/><g><g class="mark-rule role-axis-tick" pointer-events="none"><line transform="translate(7,0)" x2="0" y2="5" stroke="#c3c2b7" stroke-width="1" opacity="1"/><line transform="translate(35,0)" x2="0" y2="5" stroke="#c3c2b7" stroke-width="1" opacity="1"/><line transform="translate(62,0)" x2="0" y2="5" stroke="#c3c2b7" stroke-width="1" opacity="1"/><line transform="translate(89,0)" x2="0" y2="5" stroke="#c3c2b7" stroke-width="1" opacity="1"/><line transform="translate(117,0)" x2="0" y2="5" stroke="#c3c2b7" stroke-width="1" opacity="1"/><line transform="translate(144,0)" x2="0" y2="5" stroke="#c3c2b7" stroke-width="1" opacity="1"/><line transform="translate(171,0)" x2="0" y2="5" stroke="#c3c2b7" stroke-width="1" opacity="1"/><line transform="translate(199,0)" x2="0" y2="5" stroke="#c3c2b7" stroke-width="1" opacity="1"/><line transform="translate(226,0)" x2="0" y2="5" stroke="#c3c2b7" stroke-width="1" opacity="1"/><line transform="translate(253,0)" x2="0" y2="5" stroke="#c3c2b7" stroke-width="1" opacity="1"/><line transform="translate(281,0)" x2="0" y2="5" stroke="#c3c2b7" stroke-width="1" opacity="1"/><line transform="translate(308,0)" x2="0" y2="5" stroke="#c3c2b7" stroke-width="1" opacity="1"/><line transform="translate(335,0)" x2="0" y2="5" stroke="#c3c2b7" stroke-width="1" opacity="1"/><line transform="translate(363,0)" x2="0" y2="5" stroke="#c3c2b7" stroke-width="1" opacity="1"/><line transform="translate(390,0)" x2="0" y2="5" stroke="#c3c2b7" stroke-width="1" opacity="1"/><line transform="translate(404,0)" x2="0" y2="5" stroke="#c3c2b7" stroke-width="1" opacity="1"/><line transform="translate(431,0)" x2="0" y2="5" stroke="#c3c2b7" stroke-width="1" opacity="1"/><line transform="translate(459,0)" x2="0" y2="5" stroke="#c3c2b7" stroke-width="1" opacity="1"/><line transform="translate(486,0)" x2="0" y2="5" stroke="#c3c2b7" stroke-width="1" opacity="1"/><line transform="translate(513,0)" x2="0" y2="5" stroke="#c3c2b7" stroke-width="1" opacity="1"/><line transform="translate(541,0)" x2="0" y2="5" stroke="#c3c2b7" stroke-width="1" opacity="1"/><line transform="translate(568,0)" x2="0" y2="5" stroke="#c3c2b7" stroke-width="1" opacity="1"/><line transform="translate(595,0)" x2="0" y2="5" stroke="#c3c2b7" stroke-width="1" opacity="1"/><line transform="translate(623,0)" x2="0" y2="5" stroke="#c3c2b7" stroke-width="1" opacity="1"/><line transform="translate(650,0)" x2="0" y2="5" stroke="#c3c2b7" stroke-width="1" opacity="1"/><line transform="translate(677,0)" x2="0" y2="5" stroke="#c3c2b7" stroke-width="1" opacity="1"/></g><g class="mark-text role-axis-label" pointer-events="none"><text text-anchor="middle" transform="translate(7.278911589434762,16)" font-family="system-ui, -apple-system, &quot;Segoe UI&quot;, sans-serif" font-size="11px" fill="#898781" opacity="1">May 03</text><text text-anchor="middle" transform="translate(34.625850369409626,16)" font-family="system-ui, -apple-system, &quot;Segoe UI&quot;, sans-serif" font-size="11px" fill="#898781" opacity="0">May 05</text><text text-anchor="middle" transform="translate(61.972789149384475,16)" font-family="system-ui, -apple-system, &quot;Segoe UI&quot;, sans-serif" font-size="11px" fill="#898781" opacity="1">May 07</text><text text-anchor="middle" transform="translate(89.31972792935933,16)" font-family="system-ui, -apple-system, &quot;Segoe UI&quot;, sans-serif" font-size="11px" fill="#898781" opacity="0">May 09</text><text text-anchor="middle" transform="translate(116.6666667093342,16)" font-family="system-ui, -apple-system, &quot;Segoe UI&quot;, sans-serif" font-size="11px" fill="#898781" opacity="1">May 11</text><text text-anchor="middle" transform="translate(144.01360548930904,16)" font-family="system-ui, -apple-system, &quot;Segoe UI&quot;, sans-serif" font-size="11px" fill="#898781" opacity="0">May 13</text><text text-anchor="middle" transform="translate(171.3605442692839,16)" font-family="system-ui, -apple-system, &quot;Segoe UI&quot;, sans-serif" font-size="11px" fill="#898781" opacity="1">May 15</text><text text-anchor="middle" transform="translate(198.70748304925877,16)" font-family="system-ui, -apple-system, &quot;Segoe UI&quot;, sans-serif" font-size="11px" fill="#898781" opacity="0">May 17</text><text text-anchor="middle" transform="translate(226.05442182923363,16)" font-family="system-ui, -apple-system, &quot;Segoe UI&quot;, sans-serif" font-size="11px" fill="#898781" opacity="1">May 19</text><text text-anchor="middle" transform="translate(253.4013606092085,16)" font-family="system-ui, -apple-system, &quot;Segoe UI&quot;, sans-serif" font-size="11px" fill="#898781" opacity="0">May 21</text><text text-anchor="middle" transform="translate(280.74829938918333,16)" font-family="system-ui, -apple-system, &quot;Segoe UI&quot;, sans-serif" font-size="11px" fill="#898781" opacity="1">May 23</text><text text-anchor="middle" transform="translate(308.0952381691582,16)" font-family="system-ui, -apple-system, &quot;Segoe UI&quot;, sans-serif" font-size="11px" fill="#898781" opacity="0">May 25</text><text text-anchor="middle" transform="translate(335.44217694913306,16)" font-family="system-ui, -apple-system, &quot;Segoe UI&quot;, sans-serif" font-size="11px" fill="#898781" opacity="1">May 27</text><text text-anchor="middle" transform="translate(362.7891157291079,16)" font-family="system-ui, -apple-system, &quot;Segoe UI&quot;, sans-serif" font-size="11px" fill="#898781" opacity="0">May 29</text><text text-anchor="middle" transform="translate(390.1360545090827,16)" font-family="system-ui, -apple-system, &quot;Segoe UI&quot;, sans-serif" font-size="11px" fill="#898781" opacity="1">May 31</text><text text-anchor="middle" transform="translate(403.8095238990702,16)" font-family="system-ui, -apple-system, &quot;Segoe UI&quot;, sans-serif" font-size="11px" fill="#898781" opacity="0">Jun 01</text><text text-anchor="middle" transform="translate(431.1564626790451,16)" font-family="system-ui, -apple-system, &quot;Segoe UI&quot;, sans-serif" font-size="11px" fill="#898781" opacity="1">Jun 03</text><text text-anchor="middle" transform="translate(458.5034014590199,16)" font-family="system-ui, -apple-system, &quot;Segoe UI&quot;, sans-serif" font-size="11px" fill="#898781" opacity="0">Jun 05</text><text text-anchor="middle" transform="translate(485.85034023899476,16)" font-family="system-ui, -apple-system, &quot;Segoe UI&quot;, sans-serif" font-size="11px" fill="#898781" opacity="1">Jun 07</text><text text-anchor="middle" transform="translate(513.1972790189697,16)" font-family="system-ui, -apple-system, &quot;Segoe UI&quot;, sans-serif" font-size="11px" fill="#898781" opacity="0">Jun 09</text><text text-anchor="middle" transform="translate(540.5442177989445,16)" font-family="system-ui, -apple-system, &quot;Segoe UI&quot;, sans-serif" font-size="11px" fill="#898781" opacity="1">Jun 11</text><text text-anchor="middle" transform="translate(567.8911565789193,16)" font-family="system-ui, -apple-system, &quot;Segoe UI&quot;, sans-serif" font-size="11px" fill="#898781" opacity="0">Jun 13</text><text text-anchor="middle" transform="translate(595.2380953588943,16)" font-family="system-ui, -apple-system, &quot;Segoe UI&quot;, sans-serif" font-size="11px" fill="#898781" opacity="1">Jun 15</text><text text-anchor="middle" transform="translate(622.5850341388691,16)" font-family="system-ui, -apple-system, &quot;Segoe UI&quot;, sans-serif" font-size="11px" fill="#898781" opacity="0">Jun 17</text><text text-anchor="middle" transform="translate(649.9319729188439,16)" font-family="system-ui, -apple-system, &quot;Segoe UI&quot;, sans-serif" font-size="11px" fill="#898781" opacity="1">Jun 19</text><text text-anchor="middle" transform="translate(677.2789116988188,16)" font-family="system-ui, -apple-system, &quot;Segoe UI&quot;, sans-serif" font-size="11px" fill="#898781" opacity="0">Jun 21</text></g><g class="mark-rule role-axis-domain" pointer-events="none"><line transform="translate(0,0)" x2="680" y2="0" stroke="#c3c2b7" stroke-width="1" opacity="1"/></g><g class="mark-text role-axis-title" pointer-events="none"><text text-anchor="middle" transform="translate(340,31)" font-family="system-ui, -apple-system, &quot;Segoe UI&quot;, sans-serif" font-size="12px" font-weight="normal" fill="#52514e" opacity="1">UTC day</text></g></g><path class="foreground" aria-hidden="true" d="" pointer-events="none" display="none"/></g></g><g class="mark-group role-axis" role="graphics-symbol" aria-roledescription="axis" aria-label="Y-axis titled 'Uploads per day (symlog)' for a symlog scale with values from 0 to 2,200"><g transform="translate(0.5,0.5)"><path class="background" aria-hidden="true" d="M0,0h0v0h0Z" pointer-events="none"/><g><g class="mark-rule role-axis-tick" pointer-events="none"><line transform="translate(0,260)" x2="-5" y2="0" stroke="#c3c2b7" stroke-width="1" opacity="1"/><line transform="translate(0,81)" x2="-5" y2="0" stroke="#c3c2b7" stroke-width="1" opacity="1"/><line transform="translate(0,58)" x2="-5" y2="0" stroke="#c3c2b7" stroke-width="1" opacity="1"/><line transform="translate(0,44)" x2="-5" y2="0" stroke="#c3c2b7" stroke-width="1" opacity="1"/><line transform="translate(0,34)" x2="-5" y2="0" stroke="#c3c2b7" stroke-width="1" opacity="1"/><line transform="translate(0,27)" x2="-5" y2="0" stroke="#c3c2b7" stroke-width="1" opacity="1"/><line transform="translate(0,20)" x2="-5" y2="0" stroke="#c3c2b7" stroke-width="1" opacity="1"/><line transform="translate(0,15)" x2="-5" y2="0" stroke="#c3c2b7" stroke-width="1" opacity="1"/><line transform="translate(0,11)" x2="-5" y2="0" stroke="#c3c2b7" stroke-width="1" opacity="1"/><line transform="translate(0,7)" x2="-5" y2="0" stroke="#c3c2b7" stroke-width="1" opacity="1"/><line transform="translate(0,3)" x2="-5" y2="0" stroke="#c3c2b7" stroke-width="1" opacity="1"/><line transform="translate(0,0)" x2="-5" y2="0" stroke="#c3c2b7" stroke-width="1" opacity="1"/></g><g class="mark-text role-axis-label" pointer-events="none"><text text-anchor="end" transform="translate(-7,263)" font-family="system-ui, -apple-system, &quot;Segoe UI&quot;, sans-serif" font-size="11px" fill="#898781" opacity="1">0</text><text text-anchor="end" transform="translate(-7,83.84982220357467)" font-family="system-ui, -apple-system, &quot;Segoe UI&quot;, sans-serif" font-size="11px" fill="#898781" opacity="1">200</text><text text-anchor="end" transform="translate(-7,60.51885399327571)" font-family="system-ui, -apple-system, &quot;Segoe UI&quot;, sans-serif" font-size="11px" fill="#898781" opacity="1">400</text><text text-anchor="end" transform="translate(-7,46.8499878769332)" font-family="system-ui, -apple-system, &quot;Segoe UI&quot;, sans-serif" font-size="11px" fill="#898781" opacity="1">600</text><text text-anchor="end" transform="translate(-7,37.14589616197665)" font-family="system-ui, -apple-system, &quot;Segoe UI&quot;, sans-serif" font-size="11px" fill="#898781" opacity="0">800</text><text text-anchor="end" transform="translate(-7,29.616351779930934)" font-family="system-ui, -apple-system, &quot;Segoe UI&quot;, sans-serif" font-size="11px" fill="#898781" opacity="1">1,000</text><text text-anchor="end" transform="translate(-7,23.462998566497486)" font-family="system-ui, -apple-system, &quot;Segoe UI&quot;, sans-serif" font-size="11px" fill="#898781" opacity="0">1,200</text><text text-anchor="end" transform="translate(-7,18.259675117189154)" font-family="system-ui, -apple-system, &quot;Segoe UI&quot;, sans-serif" font-size="11px" fill="#898781" opacity="1">1,400</text><text text-anchor="end" transform="translate(-7,13.751884541863543)" font-family="system-ui, -apple-system, &quot;Segoe UI&quot;, sans-serif" font-size="11px" fill="#898781" opacity="0">1,600</text><text text-anchor="end" transform="translate(-7,9.775417320088774)" font-family="system-ui, -apple-system, &quot;Segoe UI&quot;, sans-serif" font-size="11px" fill="#898781" opacity="0">1,800</text><text text-anchor="end" transform="translate(-7,6.218124669125864)" font-family="system-ui, -apple-system, &quot;Segoe UI&quot;, sans-serif" font-size="11px" fill="#898781" opacity="1">2,000</text><text text-anchor="end" transform="translate(-7,3)" font-family="system-ui, -apple-system, &quot;Segoe UI&quot;, sans-serif" font-size="11px" fill="#898781" opacity="0">2,200</text></g><g class="mark-rule role-axis-domain" pointer-events="none"><line transform="translate(0,260)" x2="0" y2="-260" stroke="#c3c2b7" stroke-width="1" opacity="1"/></g><g class="mark-text role-axis-title" pointer-events="none"><text text-anchor="middle" transform="translate(-38.52685546875,130) rotate(-90) translate(0,-3)" font-family="system-ui, -apple-system, &quot;Segoe UI&quot;, sans-serif" font-size="12px" font-weight="normal" fill="#52514e" opacity="1">Uploads per day (symlog)</text></g></g><path class="foreground" aria-hidden="true" d="" pointer-events="none" display="none"/></g></g><g class="mark-rect role-mark layer_0_marks" role="graphics-object" aria-roledescription="rect mark container"><path aria-label="start: May 12, 2026; end: May 16, 2026" role="graphics-symbol" aria-roledescription="rect mark" d="M133.13180276644405,0h52.58588436232668v260h-52.58588436232668Z" fill="#e1e0d9" opacity="0.7"/></g><g class="mark-text role-mark layer_1_marks" role="graphics-object" aria-roledescription="text mark container"><text aria-label="start: May 12, 2026; label: Registrations closed" role="graphics-symbol" aria-roledescription="text mark" text-anchor="start" transform="translate(137.13180276644405,12)" font-family="system-ui, -apple-system, &quot;Segoe UI&quot;, sans-serif" font-size="10px" fill="#898781">Registrations closed</text></g><g class="mark-group role-scope" role="graphics-object" aria-roledescription="group mark container"><g transform="translate(29.625850369409626,205.63181013282502)"><path class="background" aria-hidden="true" d="M4,0L6,0C8.207660097976,0,10,1.792339902024,10,4L10,54.368189867174976C10,54.368189867174976,10,54.368189867174976,10,54.368189867174976L0,54.368189867174976C0,54.368189867174976,0,54.368189867174976,0,54.368189867174976L0,4C0,1.792339902024,1.792339902024,0,4,0Z" stroke-width="0"/><g clip-path="url(#clip1)"><g class="mark-group role-scope" role="graphics-object" aria-roledescription="group mark container"><g transform="translate(0,-205.63181013282502)"><path class="background" aria-hidden="true" d="M0,0h10v0h-10Z"/><g><g class="mark-rect role-mark layer_2_marks" role="graphics-object" aria-roledescription="rect mark container"><path aria-label="UTC day: May 05; Uploads per day (symlog): 4; date_utc: May 05, 2026; total_uploads: 4; new_package_names: 3; subsequent_versions: 1" role="graphics-symbol" aria-roledescription="bar" d="M0,205.63181013282502h10v54.368189867174976h-10Z" fill="#2a78d6" stroke="#fcfcfb" stroke-width="0"/></g></g><path class="foreground" aria-hidden="true" d="" display="none"/></g></g></g><path class="foreground" aria-hidden="true" d="M4,0L6,0C8.207660097976,0,10,1.792339902024,10,4L10,54.368189867174976C10,54.368189867174976,10,54.368189867174976,10,54.368189867174976L0,54.368189867174976C0,54.368189867174976,0,54.368189867174976,0,54.368189867174976L0,4C0,1.792339902024,1.792339902024,0,4,0Z" stroke="#fcfcfb" stroke-width="0"/></g><g transform="translate(70.6462585393719,122.83476061008325)"><path class="background" aria-hidden="true" d="M4,0L6,0C8.207660097976,0,10,1.792339902024,10,4L10,137.16523938991674C10,137.16523938991674,10,137.16523938991674,10,137.16523938991674L0,137.16523938991674C0,137.16523938991674,0,137.16523938991674,0,137.16523938991674L0,4C0,1.792339902024,1.792339902024,0,4,0Z" stroke-width="0"/><g clip-path="url(#clip2)"><g class="mark-group role-scope" role="graphics-object" aria-roledescription="group mark container"><g transform="translate(0,-122.83476061008325)"><path class="background" aria-hidden="true" d="M0,0h10v0h-10Z"/><g><g class="mark-rect role-mark layer_2_marks" role="graphics-object" aria-roledescription="rect mark container"><path aria-label="UTC day: May 08; Uploads per day (symlog): 57; date_utc: May 08, 2026; total_uploads: 57; new_package_names: 45; subsequent_versions: 12" role="graphics-symbol" aria-roledescription="bar" d="M0,122.83476061008325h10v137.16523938991674h-10Z" fill="#2a78d6" stroke="#fcfcfb" stroke-width="0"/></g></g><path class="foreground" aria-hidden="true" d="" display="none"/></g></g></g><path class="foreground" aria-hidden="true" d="M4,0L6,0C8.207660097976,0,10,1.792339902024,10,4L10,137.16523938991674C10,137.16523938991674,10,137.16523938991674,10,137.16523938991674L0,137.16523938991674C0,137.16523938991674,0,137.16523938991674,0,137.16523938991674L0,4C0,1.792339902024,1.792339902024,0,4,0Z" stroke="#fcfcfb" stroke-width="0"/></g><g transform="translate(84.31972792935933,205.63181013282502)"><path class="background" aria-hidden="true" d="M4,0L6,0C8.207660097976,0,10,1.792339902024,10,4L10,54.368189867174976C10,54.368189867174976,10,54.368189867174976,10,54.368189867174976L0,54.368189867174976C0,54.368189867174976,0,54.368189867174976,0,54.368189867174976L0,4C0,1.792339902024,1.792339902024,0,4,0Z" stroke-width="0"/><g clip-path="url(#clip3)"><g class="mark-group role-scope" role="graphics-object" aria-roledescription="group mark container"><g transform="translate(0,-205.63181013282502)"><path class="background" aria-hidden="true" d="M0,0h10v0h-10Z"/><g><g class="mark-rect role-mark layer_2_marks" role="graphics-object" aria-roledescription="rect mark container"><path aria-label="UTC day: May 09; Uploads per day (symlog): 4; date_utc: May 09, 2026; total_uploads: 4; new_package_names: 2; subsequent_versions: 2" role="graphics-symbol" aria-roledescription="bar" d="M0,205.63181013282502h10v54.368189867174976h-10Z" fill="#2a78d6" stroke="#fcfcfb" stroke-width="0"/></g></g><path class="foreground" aria-hidden="true" d="" display="none"/></g></g></g><path class="foreground" aria-hidden="true" d="M4,0L6,0C8.207660097976,0,10,1.792339902024,10,4L10,54.368189867174976C10,54.368189867174976,10,54.368189867174976,10,54.368189867174976L0,54.368189867174976C0,54.368189867174976,0,54.368189867174976,0,54.368189867174976L0,4C0,1.792339902024,1.792339902024,0,4,0Z" stroke="#fcfcfb" stroke-width="0"/></g><g transform="translate(97.99319731934676,189.75468535797307)"><path class="background" aria-hidden="true" d="M4,0L6,0C8.207660097976,0,10,1.792339902024,10,4L10,70.24531464202693C10,70.24531464202693,10,70.24531464202693,10,70.24531464202693L0,70.24531464202693C0,70.24531464202693,0,70.24531464202693,0,70.24531464202693L0,4C0,1.792339902024,1.792339902024,0,4,0Z" stroke-width="0"/><g clip-path="url(#clip4)"><g class="mark-group role-scope" role="graphics-object" aria-roledescription="group mark container"><g transform="translate(0,-189.75468535797307)"><path class="background" aria-hidden="true" d="M0,0h10v0h-10Z"/><g><g class="mark-rect role-mark layer_2_marks" role="graphics-object" aria-roledescription="rect mark container"><path aria-label="UTC day: May 10; Uploads per day (symlog): 7; date_utc: May 10, 2026; total_uploads: 7; new_package_names: 5; subsequent_versions: 2" role="graphics-symbol" aria-roledescription="bar" d="M0,189.75468535797307h10v70.24531464202693h-10Z" fill="#2a78d6" stroke="#fcfcfb" stroke-width="0"/></g></g><path class="foreground" aria-hidden="true" d="" display="none"/></g></g></g><path class="foreground" aria-hidden="true" d="M4,0L6,0C8.207660097976,0,10,1.792339902024,10,4L10,70.24531464202693C10,70.24531464202693,10,70.24531464202693,10,70.24531464202693L0,70.24531464202693C0,70.24531464202693,0,70.24531464202693,0,70.24531464202693L0,4C0,1.792339902024,1.792339902024,0,4,0Z" stroke="#fcfcfb" stroke-width="0"/></g><g transform="translate(111.6666667093342,67.88910615643995)"><path class="background" aria-hidden="true" d="M4,0L6,0C8.207660097976,0,10,1.792339902024,10,4L10,192.11089384356006C10,192.11089384356006,10,192.11089384356006,10,192.11089384356006L0,192.11089384356006C0,192.11089384356006,0,192.11089384356006,0,192.11089384356006L0,4C0,1.792339902024,1.792339902024,0,4,0Z" stroke-width="0"/><g clip-path="url(#clip5)"><g class="mark-group role-scope" role="graphics-object" aria-roledescription="group mark container"><g transform="translate(0,-67.88910615643995)"><path class="background" aria-hidden="true" d="M0,0h10v0h-10Z"/><g><g class="mark-rect role-mark layer_2_marks" role="graphics-object" aria-roledescription="rect mark container"><path aria-label="UTC day: May 11; Uploads per day (symlog): 294; date_utc: May 11, 2026; total_uploads: 294; new_package_names: 283; subsequent_versions: 11" role="graphics-symbol" aria-roledescription="bar" d="M0,67.88910615643995h10v192.11089384356006h-10Z" fill="#2a78d6" stroke="#fcfcfb" stroke-width="0"/></g></g><path class="foreground" aria-hidden="true" d="" display="none"/></g></g></g><path class="foreground" aria-hidden="true" d="M4,0L6,0C8.207660097976,0,10,1.792339902024,10,4L10,192.11089384356006C10,192.11089384356006,10,192.11089384356006,10,192.11089384356006L0,192.11089384356006C0,192.11089384356006,0,192.11089384356006,0,192.11089384356006L0,4C0,1.792339902024,1.792339902024,0,4,0Z" stroke="#fcfcfb" stroke-width="0"/></g><g transform="translate(125.34013609932163,0.21555769573331496)"><path class="background" aria-hidden="true" d="M4,0L6,0C8.207660097976,0,10,1.792339902024,10,4L10,259.7844423042667C10,259.7844423042667,10,259.7844423042667,10,259.7844423042667L0,259.7844423042667C0,259.7844423042667,0,259.7844423042667,0,259.7844423042667L0,4C0,1.792339902024,1.792339902024,0,4,0Z" stroke-width="0"/><g clip-path="url(#clip6)"><g class="mark-group role-scope" role="graphics-object" aria-roledescription="group mark container"><g transform="translate(0,-0.21555769573331496)"><path class="background" aria-hidden="true" d="M0,0h10v0h-10Z"/><g><g class="mark-rect role-mark layer_2_marks" role="graphics-object" aria-roledescription="rect mark container"><path aria-label="UTC day: May 12; Uploads per day (symlog): 2186; date_utc: May 12, 2026; total_uploads: 2186; new_package_names: 2126; subsequent_versions: 60" role="graphics-symbol" aria-roledescription="bar" d="M0,0.21555769573331496h10v259.7844423042667h-10Z" fill="#2a78d6" stroke="#fcfcfb" stroke-width="0"/></g></g><path class="foreground" aria-hidden="true" d="" display="none"/></g></g></g><path class="foreground" aria-hidden="true" d="M4,0L6,0C8.207660097976,0,10,1.792339902024,10,4L10,259.7844423042667C10,259.7844423042667,10,259.7844423042667,10,259.7844423042667L0,259.7844423042667C0,259.7844423042667,0,259.7844423042667,0,259.7844423042667L0,4C0,1.792339902024,1.792339902024,0,4,0Z" stroke="#fcfcfb" stroke-width="0"/></g><g transform="translate(316.76870755914564,166.33958047729743)"><path class="background" aria-hidden="true" d="M4,0L6,0C8.207660097976,0,10,1.792339902024,10,4L10,93.66041952270257C10,93.66041952270257,10,93.66041952270257,10,93.66041952270257L0,93.66041952270257C0,93.66041952270257,0,93.66041952270257,0,93.66041952270257L0,4C0,1.792339902024,1.792339902024,0,4,0Z" stroke-width="0"/><g clip-path="url(#clip7)"><g class="mark-group role-scope" role="graphics-object" aria-roledescription="group mark container"><g transform="translate(0,-166.33958047729743)"><path class="background" aria-hidden="true" d="M0,0h10v0h-10Z"/><g><g class="mark-rect role-mark layer_2_marks" role="graphics-object" aria-roledescription="rect mark container"><path aria-label="UTC day: May 26; Uploads per day (symlog): 15; date_utc: May 26, 2026; total_uploads: 15; new_package_names: 3; subsequent_versions: 12" role="graphics-symbol" aria-roledescription="bar" d="M0,166.33958047729743h10v93.66041952270257h-10Z" fill="#2a78d6" stroke="#fcfcfb" stroke-width="0"/></g></g><path class="foreground" aria-hidden="true" d="" display="none"/></g></g></g><path class="foreground" aria-hidden="true" d="M4,0L6,0C8.207660097976,0,10,1.792339902024,10,4L10,93.66041952270257C10,93.66041952270257,10,93.66041952270257,10,93.66041952270257L0,93.66041952270257C0,93.66041952270257,0,93.66041952270257,0,93.66041952270257L0,4C0,1.792339902024,1.792339902024,0,4,0Z" stroke="#fcfcfb" stroke-width="0"/></g><g transform="translate(330.44217694913306,213.16979023864872)"><path class="background" aria-hidden="true" d="M4,0L6,0C8.207660097976,0,10,1.792339902024,10,4L10,46.830209761351284C10,46.830209761351284,10,46.830209761351284,10,46.830209761351284L0,46.830209761351284C0,46.830209761351284,0,46.830209761351284,0,46.830209761351284L0,4C0,1.792339902024,1.792339902024,0,4,0Z" stroke-width="0"/><g clip-path="url(#clip8)"><g class="mark-group role-scope" role="graphics-object" aria-roledescription="group mark container"><g transform="translate(0,-213.16979023864872)"><path class="background" aria-hidden="true" d="M0,0h10v0h-10Z"/><g><g class="mark-rect role-mark layer_2_marks" role="graphics-object" aria-roledescription="rect mark container"><path aria-label="UTC day: May 27; Uploads per day (symlog): 3; date_utc: May 27, 2026; total_uploads: 3; new_package_names: 2; subsequent_versions: 1" role="graphics-symbol" aria-roledescription="bar" d="M0,213.16979023864872h10v46.830209761351284h-10Z" fill="#2a78d6" stroke="#fcfcfb" stroke-width="0"/></g></g><path class="foreground" aria-hidden="true" d="" display="none"/></g></g></g><path class="foreground" aria-hidden="true" d="M4,0L6,0C8.207660097976,0,10,1.792339902024,10,4L10,46.830209761351284C10,46.830209761351284,10,46.830209761351284,10,46.830209761351284L0,46.830209761351284C0,46.830209761351284,0,46.830209761351284,0,46.830209761351284L0,4C0,1.792339902024,1.792339902024,0,4,0Z" stroke="#fcfcfb" stroke-width="0"/></g><g transform="translate(631.2585035288565,109.92343900908389)"><path class="background" aria-hidden="true" d="M4,0L6,0C8.207660097976,0,10,1.792339902024,10,4L10,150.0765609909161C10,150.0765609909161,10,150.0765609909161,10,150.0765609909161L0,150.0765609909161C0,150.0765609909161,0,150.0765609909161,0,150.0765609909161L0,4C0,1.792339902024,1.792339902024,0,4,0Z" stroke-width="0"/><g clip-path="url(#clip9)"><g class="mark-group role-scope" role="graphics-object" aria-roledescription="group mark container"><g transform="translate(0,-109.92343900908389)"><path class="background" aria-hidden="true" d="M0,0h10v0h-10Z"/><g><g class="mark-rect role-mark layer_2_marks" role="graphics-object" aria-roledescription="rect mark container"><path aria-label="UTC day: Jun 18; Uploads per day (symlog): 84; date_utc: Jun 18, 2026; total_uploads: 84; new_package_names: 83; subsequent_versions: 1" role="graphics-symbol" aria-roledescription="bar" d="M0,109.92343900908389h10v150.0765609909161h-10Z" fill="#2a78d6" stroke="#fcfcfb" stroke-width="0"/></g></g><path class="foreground" aria-hidden="true" d="" display="none"/></g></g></g><path class="foreground" aria-hidden="true" d="M4,0L6,0C8.207660097976,0,10,1.792339902024,10,4L10,150.0765609909161C10,150.0765609909161,10,150.0765609909161,10,150.0765609909161L0,150.0765609909161C0,150.0765609909161,0,150.0765609909161,0,150.0765609909161L0,4C0,1.792339902024,1.792339902024,0,4,0Z" stroke="#fcfcfb" stroke-width="0"/></g></g><g class="mark-text role-mark layer_3_marks" role="graphics-object" aria-roledescription="text mark container"><text aria-label="date_utc: May 05, 2026; total_uploads: 4" role="graphics-symbol" aria-roledescription="text mark" text-anchor="middle" transform="translate(34.625850369409626,200.63181013282502)" font-family="system-ui, -apple-system, &quot;Segoe UI&quot;, sans-serif" font-size="10px" fill="#52514e">4</text><text aria-label="date_utc: May 08, 2026; total_uploads: 57" role="graphics-symbol" aria-roledescription="text mark" text-anchor="middle" transform="translate(75.6462585393719,117.83476061008325)" font-family="system-ui, -apple-system, &quot;Segoe UI&quot;, sans-serif" font-size="10px" fill="#52514e">57</text><text aria-label="date_utc: May 09, 2026; total_uploads: 4" role="graphics-symbol" aria-roledescription="text mark" text-anchor="middle" transform="translate(89.31972792935933,200.63181013282502)" font-family="system-ui, -apple-system, &quot;Segoe UI&quot;, sans-serif" font-size="10px" fill="#52514e">4</text><text aria-label="date_utc: May 10, 2026; total_uploads: 7" role="graphics-symbol" aria-roledescription="text mark" text-anchor="middle" transform="translate(102.99319731934676,184.75468535797307)" font-family="system-ui, -apple-system, &quot;Segoe UI&quot;, sans-serif" font-size="10px" fill="#52514e">7</text><text aria-label="date_utc: May 11, 2026; total_uploads: 294" role="graphics-symbol" aria-roledescription="text mark" text-anchor="middle" transform="translate(116.6666667093342,62.88910615643995)" font-family="system-ui, -apple-system, &quot;Segoe UI&quot;, sans-serif" font-size="10px" fill="#52514e">294</text><text aria-label="date_utc: May 12, 2026; total_uploads: 2186" role="graphics-symbol" aria-roledescription="text mark" text-anchor="middle" transform="translate(130.34013609932163,-4.784442304266685)" font-family="system-ui, -apple-system, &quot;Segoe UI&quot;, sans-serif" font-size="10px" fill="#52514e">2,186</text><text aria-label="date_utc: May 26, 2026; total_uploads: 15" role="graphics-symbol" aria-roledescription="text mark" text-anchor="middle" transform="translate(321.76870755914564,161.33958047729743)" font-family="system-ui, -apple-system, &quot;Segoe UI&quot;, sans-serif" font-size="10px" fill="#52514e">15</text><text aria-label="date_utc: May 27, 2026; total_uploads: 3" role="graphics-symbol" aria-roledescription="text mark" text-anchor="middle" transform="translate(335.44217694913306,208.16979023864872)" font-family="system-ui, -apple-system, &quot;Segoe UI&quot;, sans-serif" font-size="10px" fill="#52514e">3</text><text aria-label="date_utc: Jun 18, 2026; total_uploads: 84" role="graphics-symbol" aria-roledescription="text mark" text-anchor="middle" transform="translate(636.2585035288565,104.92343900908389)" font-family="system-ui, -apple-system, &quot;Segoe UI&quot;, sans-serif" font-size="10px" fill="#52514e">84</text></g><g class="mark-group role-title"><g transform="translate(-51.52685546875,-44.78444230426668)"><path class="background" aria-hidden="true" d="M0,0h0v0h0Z" pointer-events="none"/><g><g class="mark-text role-title-text" role="graphics-symbol" aria-roledescription="title" aria-label="Title text '93% of the 2,654 uploads landed on May 11–12, just before RubyGems closed registrations'" pointer-events="none"><text text-anchor="start" transform="translate(0,11)" font-family="system-ui, -apple-system, &quot;Segoe UI&quot;, sans-serif" font-size="14px" font-weight="600" fill="#0b0b0b" opacity="1">93% of the 2,654 uploads landed on May 11–12, just before RubyGems closed registrations</text></g><g class="mark-text role-title-subtitle" role="graphics-symbol" aria-roledescription="subtitle" aria-label="Subtitle text 'Total registry uploads per UTC day (new names vs. subsequent versions in the table below) · Source: rubyhack.ai uploads-per-day.csv'" pointer-events="none"><text text-anchor="start" transform="translate(0,26)" font-family="system-ui, -apple-system, &quot;Segoe UI&quot;, sans-serif" font-size="12px" fill="#52514e" opacity="1">Total registry uploads per UTC day (new names vs. subsequent versions in the table below) · Source: rubyhack.ai uploads-per-day.csv</text></g></g><path class="foreground" aria-hidden="true" d="" pointer-events="none" display="none"/></g></g></g><path class="foreground" aria-hidden="true" d="" display="none"/></g></g></g><defs><clipPath id="clip1"><path d="M4,0L6,0C8.207660097976,0,10,1.792339902024,10,4L10,54.368189867174976C10,54.368189867174976,10,54.368189867174976,10,54.368189867174976L0,54.368189867174976C0,54.368189867174976,0,54.368189867174976,0,54.368189867174976L0,4C0,1.792339902024,1.792339902024,0,4,0Z"/></clipPath><clipPath id="clip2"><path d="M4,0L6,0C8.207660097976,0,10,1.792339902024,10,4L10,137.16523938991674C10,137.16523938991674,10,137.16523938991674,10,137.16523938991674L0,137.16523938991674C0,137.16523938991674,0,137.16523938991674,0,137.16523938991674L0,4C0,1.792339902024,1.792339902024,0,4,0Z"/></clipPath><clipPath id="clip3"><path d="M4,0L6,0C8.207660097976,0,10,1.792339902024,10,4L10,54.368189867174976C10,54.368189867174976,10,54.368189867174976,10,54.368189867174976L0,54.368189867174976C0,54.368189867174976,0,54.368189867174976,0,54.368189867174976L0,4C0,1.792339902024,1.792339902024,0,4,0Z"/></clipPath><clipPath id="clip4"><path d="M4,0L6,0C8.207660097976,0,10,1.792339902024,10,4L10,70.24531464202693C10,70.24531464202693,10,70.24531464202693,10,70.24531464202693L0,70.24531464202693C0,70.24531464202693,0,70.24531464202693,0,70.24531464202693L0,4C0,1.792339902024,1.792339902024,0,4,0Z"/></clipPath><clipPath id="clip5"><path d="M4,0L6,0C8.207660097976,0,10,1.792339902024,10,4L10,192.11089384356006C10,192.11089384356006,10,192.11089384356006,10,192.11089384356006L0,192.11089384356006C0,192.11089384356006,0,192.11089384356006,0,192.11089384356006L0,4C0,1.792339902024,1.792339902024,0,4,0Z"/></clipPath><clipPath id="clip6"><path d="M4,0L6,0C8.207660097976,0,10,1.792339902024,10,4L10,259.7844423042667C10,259.7844423042667,10,259.7844423042667,10,259.7844423042667L0,259.7844423042667C0,259.7844423042667,0,259.7844423042667,0,259.7844423042667L0,4C0,1.792339902024,1.792339902024,0,4,0Z"/></clipPath><clipPath id="clip7"><path d="M4,0L6,0C8.207660097976,0,10,1.792339902024,10,4L10,93.66041952270257C10,93.66041952270257,10,93.66041952270257,10,93.66041952270257L0,93.66041952270257C0,93.66041952270257,0,93.66041952270257,0,93.66041952270257L0,4C0,1.792339902024,1.792339902024,0,4,0Z"/></clipPath><clipPath id="clip8"><path d="M4,0L6,0C8.207660097976,0,10,1.792339902024,10,4L10,46.830209761351284C10,46.830209761351284,10,46.830209761351284,10,46.830209761351284L0,46.830209761351284C0,46.830209761351284,0,46.830209761351284,0,46.830209761351284L0,4C0,1.792339902024,1.792339902024,0,4,0Z"/></clipPath><clipPath id="clip9"><path d="M4,0L6,0C8.207660097976,0,10,1.792339902024,10,4L10,150.0765609909161C10,150.0765609909161,10,150.0765609909161,10,150.0765609909161L0,150.0765609909161C0,150.0765609909161,0,150.0765609909161,0,150.0765609909161L0,4C0,1.792339902024,1.792339902024,0,4,0Z"/></clipPath></defs></svg>