<svg xmlns="http://www.w3.org/2000/svg" xmlns:xlink="http://www.w3.org/1999/xlink" version="1.1" class="marks" width="615" height="136" viewBox="0 0 615 136"><rect width="615" height="136" fill="#fcfcfb"/><g fill="none" stroke-miterlimit="10" transform="translate(89,38)"><g class="mark-group role-frame root" role="graphics-object" aria-roledescription="group mark container"><g transform="translate(0,0)"><path class="background" aria-hidden="true" d="M0,0h520v60h-520Z"/><g><g class="mark-group role-axis" role="graphics-symbol" aria-roledescription="axis" aria-label="X-axis titled 'Share of distinct names containing 'oai' / 'openai'' for a linear scale with values from 0% to 100%"><g transform="translate(0.5,60.5)"><path class="background" aria-hidden="true" d="M0,0h0v0h0Z" pointer-events="none"/><g><g class="mark-rule role-axis-tick" pointer-events="none"><line transform="translate(0,0)" x2="0" y2="5" stroke="#c3c2b7" stroke-width="1" opacity="1"/><line transform="translate(52,0)" x2="0" y2="5" stroke="#c3c2b7" stroke-width="1" opacity="1"/><line transform="translate(104,0)" x2="0" y2="5" stroke="#c3c2b7" stroke-width="1" opacity="1"/><line transform="translate(156,0)" x2="0" y2="5" stroke="#c3c2b7" stroke-width="1" opacity="1"/><line transform="translate(208,0)" x2="0" y2="5" stroke="#c3c2b7" stroke-width="1" opacity="1"/><line transform="translate(260,0)" x2="0" y2="5" stroke="#c3c2b7" stroke-width="1" opacity="1"/><line transform="translate(312,0)" x2="0" y2="5" stroke="#c3c2b7" stroke-width="1" opacity="1"/><line transform="translate(364,0)" x2="0" y2="5" stroke="#c3c2b7" stroke-width="1" opacity="1"/><line transform="translate(416,0)" x2="0" y2="5" stroke="#c3c2b7" stroke-width="1" opacity="1"/><line transform="translate(468,0)" x2="0" y2="5" stroke="#c3c2b7" stroke-width="1" opacity="1"/><line transform="translate(520,0)" x2="0" y2="5" stroke="#c3c2b7" stroke-width="1" opacity="1"/></g><g class="mark-text role-axis-label" pointer-events="none"><text text-anchor="start" transform="translate(0,16)" font-family="system-ui, -apple-system, &quot;Segoe UI&quot;, sans-serif" font-size="11px" fill="#898781" opacity="1">0%</text><text text-anchor="middle" transform="translate(52,16)" font-family="system-ui, -apple-system, &quot;Segoe UI&quot;, sans-serif" font-size="11px" fill="#898781" opacity="1">10%</text><text text-anchor="middle" transform="translate(104,16)" font-family="system-ui, -apple-system, &quot;Segoe UI&quot;, sans-serif" font-size="11px" fill="#898781" opacity="1">20%</text><text text-anchor="middle" transform="translate(156,16)" font-family="system-ui, -apple-system, &quot;Segoe UI&quot;, sans-serif" font-size="11px" fill="#898781" opacity="1">30%</text><text text-anchor="middle" transform="translate(208,16)" font-family="system-ui, -apple-system, &quot;Segoe UI&quot;, sans-serif" font-size="11px" fill="#898781" opacity="1">40%</text><text text-anchor="middle" transform="translate(260,16)" font-family="system-ui, -apple-system, &quot;Segoe UI&quot;, sans-serif" font-size="11px" fill="#898781" opacity="1">50%</text><text text-anchor="middle" transform="translate(312,16)" font-family="system-ui, -apple-system, &quot;Segoe UI&quot;, sans-serif" font-size="11px" fill="#898781" opacity="1">60%</text><text text-anchor="middle" transform="translate(364,16)" font-family="system-ui, -apple-system, &quot;Segoe UI&quot;, sans-serif" font-size="11px" fill="#898781" opacity="1">70%</text><text text-anchor="middle" transform="translate(416,16)" font-family="system-ui, -apple-system, &quot;Segoe UI&quot;, sans-serif" font-size="11px" fill="#898781" opacity="1">80%</text><text text-anchor="middle" transform="translate(468,16)" font-family="system-ui, -apple-system, &quot;Segoe UI&quot;, sans-serif" font-size="11px" fill="#898781" opacity="1">90%</text><text text-anchor="end" transform="translate(520,16)" font-family="system-ui, -apple-system, &quot;Segoe UI&quot;, sans-serif" font-size="11px" fill="#898781" opacity="1">100%</text></g><g class="mark-rule role-axis-domain" pointer-events="none"><line transform="translate(0,0)" x2="520" y2="0" stroke="#c3c2b7" stroke-width="1" opacity="1"/></g><g class="mark-text role-axis-title" pointer-events="none"><text text-anchor="middle" transform="translate(260,31)" font-family="system-ui, -apple-system, &quot;Segoe UI&quot;, sans-serif" font-size="12px" font-weight="normal" fill="#52514e" opacity="1">Share of distinct names containing 'oai' / 'openai'</text></g></g><path class="foreground" aria-hidden="true" d="" pointer-events="none" display="none"/></g></g><g class="mark-group role-axis" role="graphics-symbol" aria-roledescription="axis" aria-label="Y-axis for a discrete scale with 3 values: wiki handle, wiki page name, gem name"><g transform="translate(0.5,0.5)"><path class="background" aria-hidden="true" d="M0,0h0v0h0Z" pointer-events="none"/><g><g class="mark-rule role-axis-tick" pointer-events="none"><line transform="translate(0,10)" x2="-5" y2="0" stroke="#c3c2b7" stroke-width="1" opacity="1"/><line transform="translate(0,30)" x2="-5" y2="0" stroke="#c3c2b7" stroke-width="1" opacity="1"/><line transform="translate(0,50)" x2="-5" y2="0" stroke="#c3c2b7" stroke-width="1" opacity="1"/></g><g class="mark-text role-axis-label" pointer-events="none"><text text-anchor="end" transform="translate(-7,12.5)" font-family="system-ui, -apple-system, &quot;Segoe UI&quot;, sans-serif" font-size="11px" fill="#898781" opacity="1">wiki handle</text><text text-anchor="end" transform="translate(-7,32.5)" font-family="system-ui, -apple-system, &quot;Segoe UI&quot;, sans-serif" font-size="11px" fill="#898781" opacity="1">wiki page name</text><text text-anchor="end" transform="translate(-7,52.5)" font-family="system-ui, -apple-system, &quot;Segoe UI&quot;, sans-serif" font-size="11px" fill="#898781" opacity="1">gem name</text></g><g class="mark-rule role-axis-domain" pointer-events="none"><line transform="translate(0,0)" x2="0" y2="60" stroke="#c3c2b7" stroke-width="1" opacity="1"/></g></g><path class="foreground" aria-hidden="true" d="" pointer-events="none" display="none"/></g></g><g class="mark-group role-scope" role="graphics-object" aria-roledescription="group mark container"><g transform="translate(0,21)"><path class="background" aria-hidden="true" d="M0,0L64.00965547509327,0C66.21731557306927,0,68.00965547509327,1.792339902024,68.00965547509327,4L68.00965547509327,14C68.00965547509327,16.207660097976,66.21731557306927,18,64.00965547509327,18L0,18C0,18,0,18,0,18L0,0C0,0,0,0,0,0Z" stroke-width="2"/><g clip-path="url(#clip51)"><g class="mark-group role-scope" role="graphics-object" aria-roledescription="group mark container"><g transform="translate(0,0)"><path class="background" aria-hidden="true" d="M0,0h0v18h0Z"/><g><g class="mark-rect role-mark marks" role="graphics-object" aria-roledescription="rect mark container"><path aria-label="Share of distinct names containing 'oai' / 'openai': 13.078780%; kind: wiki page name; names: 4557; oai_share: 13.1%" role="graphics-symbol" aria-roledescription="bar" d="M0,0h68.00965547509327v18h-68.00965547509327Z" fill="#2a78d6" stroke="#fcfcfb" stroke-width="2"/></g></g><path class="foreground" aria-hidden="true" d="" display="none"/></g></g></g><path class="foreground" aria-hidden="true" d="M0,0L64.00965547509327,0C66.21731557306927,0,68.00965547509327,1.792339902024,68.00965547509327,4L68.00965547509327,14C68.00965547509327,16.207660097976,66.21731557306927,18,64.00965547509327,18L0,18C0,18,0,18,0,18L0,0C0,0,0,0,0,0Z" stroke="#fcfcfb" stroke-width="2"/></g><g transform="translate(0,1)"><path class="background" aria-hidden="true" d="M0,0L118.8755641521599,0C121.0832242501359,0,122.8755641521599,1.792339902024,122.8755641521599,4L122.8755641521599,14C122.8755641521599,16.207660097976,121.0832242501359,18,118.8755641521599,18L0,18C0,18,0,18,0,18L0,0C0,0,0,0,0,0Z" stroke-width="2"/><g clip-path="url(#clip52)"><g class="mark-group role-scope" role="graphics-object" aria-roledescription="group mark container"><g transform="translate(0,0)"><path class="background" aria-hidden="true" d="M0,0h0v18h0Z"/><g><g class="mark-rect role-mark marks" role="graphics-object" aria-roledescription="rect mark container"><path aria-label="Share of distinct names containing 'oai' / 'openai': 23.629916%; kind: wiki handle; names: 3102; oai_share: 23.6%" role="graphics-symbol" aria-roledescription="bar" d="M0,0h122.8755641521599v18h-122.8755641521599Z" fill="#2a78d6" stroke="#fcfcfb" stroke-width="2"/></g></g><path class="foreground" aria-hidden="true" d="" display="none"/></g></g></g><path class="foreground" aria-hidden="true" d="M0,0L118.8755641521599,0C121.0832242501359,0,122.8755641521599,1.792339902024,122.8755641521599,4L122.8755641521599,14C122.8755641521599,16.207660097976,121.0832242501359,18,118.8755641521599,18L0,18C0,18,0,18,0,18L0,0C0,0,0,0,0,0Z" stroke="#fcfcfb" stroke-width="2"/></g><g transform="translate(0,41)"><path class="background" aria-hidden="true" d="M0,0L421.4545454545455,0C423.66220555252147,0,425.4545454545455,1.792339902024,425.4545454545455,4L425.4545454545455,14C425.4545454545455,16.207660097976,423.66220555252147,18,421.4545454545455,18L0,18C0,18,0,18,0,18L0,0C0,0,0,0,0,0Z" stroke-width="2"/><g clip-path="url(#clip53)"><g class="mark-group role-scope" role="graphics-object" aria-roledescription="group mark container"><g transform="translate(0,0)"><path class="background" aria-hidden="true" d="M0,0h0v18h0Z"/><g><g class="mark-rect role-mark marks" role="graphics-object" aria-roledescription="rect mark container"><path aria-label="Share of distinct names containing 'oai' / 'openai': 81.818182%; kind: gem name; names: 286; oai_share: 81.8%" role="graphics-symbol" aria-roledescription="bar" d="M0,0h425.4545454545455v18h-425.4545454545455Z" fill="#2a78d6" stroke="#fcfcfb" stroke-width="2"/></g></g><path class="foreground" aria-hidden="true" d="" display="none"/></g></g></g><path class="foreground" aria-hidden="true" d="M0,0L421.4545454545455,0C423.66220555252147,0,425.4545454545455,1.792339902024,425.4545454545455,4L425.4545454545455,14C425.4545454545455,16.207660097976,423.66220555252147,18,421.4545454545455,18L0,18C0,18,0,18,0,18L0,0C0,0,0,0,0,0Z" stroke="#fcfcfb" stroke-width="2"/></g></g><g class="mark-group role-title"><g transform="translate(-83.4306640625,-33)"><path class="background" aria-hidden="true" d="M0,0h0v0h0Z" pointer-events="none"/><g><g class="mark-text role-title-text" role="graphics-symbol" aria-roledescription="title" aria-label="Title text '82% of named gems vs 24% of wiki handles self-identify with 'oai' / 'openai''" pointer-events="none"><text text-anchor="start" transform="translate(0,11)" font-family="system-ui, -apple-system, &quot;Segoe UI&quot;, sans-serif" font-size="14px" font-weight="600" fill="#0b0b0b" opacity="1">82% of named gems vs 24% of wiki handles self-identify with 'oai' / 'openai'</text></g><g class="mark-text role-title-subtitle" role="graphics-symbol" aria-roledescription="subtitle" aria-label="Subtitle text 'Distinct names by kind; 'oai' matched case-insensitively inside the name · Source: indicators.parquet'" pointer-events="none"><text text-anchor="start" transform="translate(0,26)" font-family="system-ui, -apple-system, &quot;Segoe UI&quot;, sans-serif" font-size="12px" fill="#52514e" opacity="1">Distinct names by kind; 'oai' matched case-insensitively inside the name · Source: indicators.parquet</text></g></g><path class="foreground" aria-hidden="true" d="" pointer-events="none" display="none"/></g></g></g><path class="foreground" aria-hidden="true" d="" display="none"/></g></g></g><defs><clipPath id="clip51"><path d="M0,0L64.00965547509327,0C66.21731557306927,0,68.00965547509327,1.792339902024,68.00965547509327,4L68.00965547509327,14C68.00965547509327,16.207660097976,66.21731557306927,18,64.00965547509327,18L0,18C0,18,0,18,0,18L0,0C0,0,0,0,0,0Z"/></clipPath><clipPath id="clip52"><path d="M0,0L118.8755641521599,0C121.0832242501359,0,122.8755641521599,1.792339902024,122.8755641521599,4L122.8755641521599,14C122.8755641521599,16.207660097976,121.0832242501359,18,118.8755641521599,18L0,18C0,18,0,18,0,18L0,0C0,0,0,0,0,0Z"/></clipPath><clipPath id="clip53"><path d="M0,0L421.4545454545455,0C423.66220555252147,0,425.4545454545455,1.792339902024,425.4545454545455,4L425.4545454545455,14C425.4545454545455,16.207660097976,423.66220555252147,18,421.4545454545455,18L0,18C0,18,0,18,0,18L0,0C0,0,0,0,0,0Z"/></clipPath></defs></svg>